<?xml version="1.0" encoding="UTF-8"?>
<svg xmlns:xlink="http://www.w3.org/1999/xlink" xmlns="http://www.w3.org/2000/svg" width="4800" height="3300"
     viewBox="0 0 4800 3300">
    <defs>
        <radialGradient id="radial-pattern-0" gradientUnits="userSpaceOnUse" cx="0" cy="0" fx="0" fy="0" r="3317.6"
                        gradientTransform="matrix(1, 0, 0, 1, 2400, 1650)">
            <stop offset="0" stop-color="rgb(99.964905%, 100%, 100%)" stop-opacity="1"/>
            <stop offset="0.25" stop-color="rgb(99.797058%, 100%, 100%)" stop-opacity="1"/>
            <stop offset="0.34375" stop-color="rgb(99.545288%, 100%, 100%)" stop-opacity="1"/>
            <stop offset="0.382812" stop-color="rgb(99.269104%, 100%, 100%)" stop-opacity="1"/>
            <stop offset="0.417969" stop-color="rgb(99.021912%, 100%, 100%)" stop-opacity="1"/>
            <stop offset="0.433594" stop-color="rgb(98.829651%, 100%, 100%)" stop-opacity="1"/>
            <stop offset="0.449219" stop-color="rgb(98.609924%, 100%, 100%)" stop-opacity="1"/>
            <stop offset="0.464844" stop-color="rgb(98.356628%, 100%, 100%)" stop-opacity="1"/>
            <stop offset="0.480469" stop-color="rgb(98.068237%, 100%, 100%)" stop-opacity="1"/>
            <stop offset="0.496094" stop-color="rgb(97.741699%, 100%, 100%)" stop-opacity="1"/>
            <stop offset="0.511719" stop-color="rgb(97.422791%, 100%, 100%)" stop-opacity="1"/>
            <stop offset="0.523438" stop-color="rgb(97.119141%, 100%, 100%)" stop-opacity="1"/>
            <stop offset="0.535156" stop-color="rgb(96.788025%, 100%, 100%)" stop-opacity="1"/>
            <stop offset="0.546875" stop-color="rgb(96.426392%, 100%, 100%)" stop-opacity="1"/>
            <stop offset="0.558594" stop-color="rgb(96.17157%, 100%, 100%)" stop-opacity="1"/>
            <stop offset="0.5625" stop-color="rgb(96.037292%, 100%, 100%)" stop-opacity="1"/>
            <stop offset="0.566406" stop-color="rgb(95.899963%, 100%, 100%)" stop-opacity="1"/>
            <stop offset="0.570312" stop-color="rgb(95.756531%, 100%, 100%)" stop-opacity="1"/>
            <stop offset="0.574219" stop-color="rgb(95.610046%, 100%, 100%)" stop-opacity="1"/>
            <stop offset="0.578125" stop-color="rgb(95.46051%, 100%, 100%)" stop-opacity="1"/>
            <stop offset="0.582031" stop-color="rgb(95.306396%, 100%, 100%)" stop-opacity="1"/>
            <stop offset="0.585938" stop-color="rgb(95.147705%, 100%, 100%)" stop-opacity="1"/>
            <stop offset="0.589844" stop-color="rgb(94.985962%, 100%, 100%)" stop-opacity="1"/>
            <stop offset="0.59375" stop-color="rgb(94.818115%, 100%, 100%)" stop-opacity="1"/>
            <stop offset="0.597656" stop-color="rgb(94.647217%, 100%, 100%)" stop-opacity="1"/>
            <stop offset="0.601562" stop-color="rgb(94.471741%, 100%, 100%)" stop-opacity="1"/>
            <stop offset="0.605469" stop-color="rgb(94.291687%, 100%, 100%)" stop-opacity="1"/>
            <stop offset="0.609375" stop-color="rgb(94.107056%, 100%, 100%)" stop-opacity="1"/>
            <stop offset="0.613281" stop-color="rgb(93.917847%, 100%, 100%)" stop-opacity="1"/>
            <stop offset="0.617188" stop-color="rgb(93.722534%, 100%, 100%)" stop-opacity="1"/>
            <stop offset="0.621094" stop-color="rgb(93.522644%, 100%, 100%)" stop-opacity="1"/>
            <stop offset="0.625" stop-color="rgb(93.318176%, 100%, 100%)" stop-opacity="1"/>
            <stop offset="0.628906" stop-color="rgb(93.107605%, 100%, 100%)" stop-opacity="1"/>
            <stop offset="0.632812" stop-color="rgb(92.892456%, 100%, 100%)" stop-opacity="1"/>
            <stop offset="0.636719" stop-color="rgb(92.672729%, 100%, 100%)" stop-opacity="1"/>
            <stop offset="0.640625" stop-color="rgb(92.446899%, 100%, 100%)" stop-opacity="1"/>
            <stop offset="0.644531" stop-color="rgb(92.216492%, 100%, 100%)" stop-opacity="1"/>
            <stop offset="0.648438" stop-color="rgb(91.978455%, 100%, 100%)" stop-opacity="1"/>
            <stop offset="0.652344" stop-color="rgb(91.73584%, 100%, 100%)" stop-opacity="1"/>
            <stop offset="0.65625" stop-color="rgb(91.487122%, 100%, 100%)" stop-opacity="1"/>
            <stop offset="0.660156" stop-color="rgb(91.233826%, 100%, 100%)" stop-opacity="1"/>
            <stop offset="0.664062" stop-color="rgb(90.9729%, 100%, 100%)" stop-opacity="1"/>
            <stop offset="0.667969" stop-color="rgb(90.705872%, 100%, 100%)" stop-opacity="1"/>
            <stop offset="0.671875" stop-color="rgb(90.434265%, 100%, 100%)" stop-opacity="1"/>
            <stop offset="0.675781" stop-color="rgb(90.155029%, 100%, 100%)" stop-opacity="1"/>
            <stop offset="0.679688" stop-color="rgb(89.868164%, 100%, 100%)" stop-opacity="1"/>
            <stop offset="0.683594" stop-color="rgb(89.576721%, 100%, 100%)" stop-opacity="1"/>
            <stop offset="0.6875" stop-color="rgb(89.277649%, 100%, 100%)" stop-opacity="1"/>
            <stop offset="0.691406" stop-color="rgb(88.972473%, 100%, 100%)" stop-opacity="1"/>
            <stop offset="0.695312" stop-color="rgb(88.659668%, 100%, 100%)" stop-opacity="1"/>
            <stop offset="0.699219" stop-color="rgb(88.340759%, 100%, 100%)" stop-opacity="1"/>
            <stop offset="0.703125" stop-color="rgb(88.012695%, 100%, 100%)" stop-opacity="1"/>
            <stop offset="0.707031" stop-color="rgb(87.678528%, 100%, 100%)" stop-opacity="1"/>
            <stop offset="0.710938" stop-color="rgb(87.336731%, 100%, 100%)" stop-opacity="1"/>
            <stop offset="0.714844" stop-color="rgb(86.987305%, 100%, 100%)" stop-opacity="1"/>
            <stop offset="0.71875" stop-color="rgb(86.631775%, 100%, 100%)" stop-opacity="1"/>
            <stop offset="0.722656" stop-color="rgb(86.26709%, 100%, 100%)" stop-opacity="1"/>
            <stop offset="0.726562" stop-color="rgb(85.894775%, 100%, 100%)" stop-opacity="1"/>
            <stop offset="0.730469" stop-color="rgb(85.514832%, 100%, 100%)" stop-opacity="1"/>
            <stop offset="0.734375" stop-color="rgb(85.125732%, 100%, 100%)" stop-opacity="1"/>
            <stop offset="0.738281" stop-color="rgb(84.727478%, 100%, 100%)" stop-opacity="1"/>
            <stop offset="0.742188" stop-color="rgb(84.32312%, 100%, 100%)" stop-opacity="1"/>
            <stop offset="0.746094" stop-color="rgb(83.909607%, 100%, 100%)" stop-opacity="1"/>
            <stop offset="0.75" stop-color="rgb(83.486938%, 100%, 100%)" stop-opacity="1"/>
            <stop offset="0.753906" stop-color="rgb(83.055115%, 100%, 100%)" stop-opacity="1"/>
            <stop offset="0.757812" stop-color="rgb(82.615662%, 100%, 100%)" stop-opacity="1"/>
            <stop offset="0.761719" stop-color="rgb(82.165527%, 100%, 100%)" stop-opacity="1"/>
            <stop offset="0.765625" stop-color="rgb(81.707764%, 100%, 100%)" stop-opacity="1"/>
            <stop offset="0.769531" stop-color="rgb(81.239319%, 100%, 100%)" stop-opacity="1"/>
            <stop offset="0.773438" stop-color="rgb(80.761719%, 100%, 100%)" stop-opacity="1"/>
            <stop offset="0.777344" stop-color="rgb(80.273438%, 100%, 100%)" stop-opacity="1"/>
            <stop offset="0.78125" stop-color="rgb(79.777527%, 100%, 100%)" stop-opacity="1"/>
            <stop offset="0.785156" stop-color="rgb(79.270935%, 100%, 100%)" stop-opacity="1"/>
            <stop offset="0.789062" stop-color="rgb(78.753662%, 100%, 100%)" stop-opacity="1"/>
            <stop offset="0.792969" stop-color="rgb(78.225708%, 100%, 100%)" stop-opacity="1"/>
            <stop offset="0.796875" stop-color="rgb(77.688599%, 100%, 100%)" stop-opacity="1"/>
            <stop offset="0.800781" stop-color="rgb(77.139282%, 100%, 100%)" stop-opacity="1"/>
            <stop offset="0.804688" stop-color="rgb(76.580811%, 100%, 100%)" stop-opacity="1"/>
            <stop offset="0.808594" stop-color="rgb(76.010132%, 100%, 100%)" stop-opacity="1"/>
            <stop offset="0.8125" stop-color="rgb(75.430298%, 100%, 100%)" stop-opacity="1"/>
            <stop offset="0.816406" stop-color="rgb(74.838257%, 100%, 100%)" stop-opacity="1"/>
            <stop offset="0.820312" stop-color="rgb(74.234009%, 100%, 100%)" stop-opacity="1"/>
            <stop offset="0.824219" stop-color="rgb(73.61908%, 100%, 100%)" stop-opacity="1"/>
            <stop offset="0.828125" stop-color="rgb(72.991943%, 100%, 100%)" stop-opacity="1"/>
            <stop offset="0.832031" stop-color="rgb(72.354126%, 100%, 100%)" stop-opacity="1"/>
            <stop offset="0.835938" stop-color="rgb(71.704102%, 100%, 100%)" stop-opacity="1"/>
            <stop offset="0.839844" stop-color="rgb(71.040344%, 100%, 100%)" stop-opacity="1"/>
            <stop offset="0.84375" stop-color="rgb(70.365906%, 100%, 100%)" stop-opacity="1"/>
            <stop offset="0.847656" stop-color="rgb(69.677734%, 100%, 100%)" stop-opacity="1"/>
            <stop offset="0.851562" stop-color="rgb(68.977356%, 100%, 100%)" stop-opacity="1"/>
            <stop offset="0.855469" stop-color="rgb(68.264771%, 100%, 100%)" stop-opacity="1"/>
            <stop offset="0.859375" stop-color="rgb(67.539978%, 100%, 100%)" stop-opacity="1"/>
            <stop offset="0.863281" stop-color="rgb(66.799927%, 100%, 100%)" stop-opacity="1"/>
            <stop offset="0.867188" stop-color="rgb(66.047668%, 100%, 100%)" stop-opacity="1"/>
            <stop offset="0.871094" stop-color="rgb(65.280151%, 100%, 100%)" stop-opacity="1"/>
            <stop offset="0.875" stop-color="rgb(64.500427%, 100%, 100%)" stop-opacity="1"/>
            <stop offset="0.878906" stop-color="rgb(63.70697%, 100%, 100%)" stop-opacity="1"/>
            <stop offset="0.882812" stop-color="rgb(62.898254%, 100%, 100%)" stop-opacity="1"/>
            <stop offset="0.886719" stop-color="rgb(62.075806%, 100%, 100%)" stop-opacity="1"/>
            <stop offset="0.890625" stop-color="rgb(61.239624%, 100%, 100%)" stop-opacity="1"/>
            <stop offset="0.894531" stop-color="rgb(60.386658%, 100%, 100%)" stop-opacity="1"/>
            <stop offset="0.898438" stop-color="rgb(59.519958%, 100%, 100%)" stop-opacity="1"/>
            <stop offset="0.902344" stop-color="rgb(58.639526%, 100%, 100%)" stop-opacity="1"/>
            <stop offset="0.90625" stop-color="rgb(57.74231%, 100%, 100%)" stop-opacity="1"/>
            <stop offset="0.910156" stop-color="rgb(56.829834%, 100%, 100%)" stop-opacity="1"/>
            <stop offset="0.914062" stop-color="rgb(55.9021%, 100%, 100%)" stop-opacity="1"/>
            <stop offset="0.917969" stop-color="rgb(54.957581%, 100%, 100%)" stop-opacity="1"/>
            <stop offset="0.921875" stop-color="rgb(53.997803%, 100%, 100%)" stop-opacity="1"/>
            <stop offset="0.925781" stop-color="rgb(53.02124%, 100%, 100%)" stop-opacity="1"/>
            <stop offset="0.929688" stop-color="rgb(52.029419%, 100%, 100%)" stop-opacity="1"/>
            <stop offset="0.933594" stop-color="rgb(51.019287%, 100%, 100%)" stop-opacity="1"/>
            <stop offset="0.9375" stop-color="rgb(49.993896%, 100%, 100%)" stop-opacity="1"/>
            <stop offset="0.941406" stop-color="rgb(48.950195%, 100%, 100%)" stop-opacity="1"/>
            <stop offset="0.945312" stop-color="rgb(47.888184%, 100%, 100%)" stop-opacity="1"/>
            <stop offset="0.949219" stop-color="rgb(46.810913%, 100%, 100%)" stop-opacity="1"/>
            <stop offset="0.953125" stop-color="rgb(45.715332%, 100%, 100%)" stop-opacity="1"/>
            <stop offset="0.957031" stop-color="rgb(44.60144%, 100%, 100%)" stop-opacity="1"/>
            <stop offset="0.960938" stop-color="rgb(43.469238%, 100%, 100%)" stop-opacity="1"/>
            <stop offset="0.964844" stop-color="rgb(42.3172%, 100%, 100%)" stop-opacity="1"/>
            <stop offset="0.96875" stop-color="rgb(41.148376%, 100%, 100%)" stop-opacity="1"/>
            <stop offset="0.972656" stop-color="rgb(39.959717%, 100%, 100%)" stop-opacity="1"/>
            <stop offset="0.976562" stop-color="rgb(38.752747%, 100%, 100%)" stop-opacity="1"/>
            <stop offset="0.980469" stop-color="rgb(37.52594%, 100%, 100%)" stop-opacity="1"/>
            <stop offset="0.984375" stop-color="rgb(36.279297%, 100%, 100%)" stop-opacity="1"/>
            <stop offset="0.988281" stop-color="rgb(35.014343%, 100%, 100%)" stop-opacity="1"/>
            <stop offset="0.992188" stop-color="rgb(33.728027%, 100%, 100%)" stop-opacity="1"/>
            <stop offset="0.996094" stop-color="rgb(32.421875%, 100%, 100%)" stop-opacity="1"/>
            <stop offset="1" stop-color="rgb(31.764221%, 100%, 100%)" stop-opacity="1"/>
        </radialGradient>
    </defs>

    <path fill-rule="nonzero" fill="rgb(30.200195%, 30.200195%, 30.200195%)" fill-opacity="1"
          d="M 1424.25 2433.769531 L 1407.941406 2446.289062 C 1398.941406 2434.558594 1388.128906 2425.679688 1375.519531 2419.628906 C 1362.898438 2413.578125 1349.050781 2410.558594 1333.949219 2410.558594 C 1317.449219 2410.558594 1302.171875 2414.519531 1288.101562 2422.441406 C 1274.039062 2430.371094 1263.140625 2441.011719 1255.398438 2454.371094 C 1247.671875 2467.730469 1243.800781 2482.761719 1243.800781 2499.449219 C 1243.800781 2524.679688 1252.449219 2545.71875 1269.75 2562.601562 C 1287.050781 2579.480469 1308.871094 2587.921875 1335.21875 2587.921875 C 1364.199219 2587.921875 1388.429688 2576.570312 1407.941406 2553.878906 L 1424.25 2566.261719 C 1413.941406 2579.390625 1401.070312 2589.53125 1385.640625 2596.710938 C 1370.21875 2603.878906 1352.988281 2607.46875 1333.949219 2607.46875 C 1297.761719 2607.46875 1269.210938 2595.421875 1248.300781 2571.320312 C 1230.769531 2550.96875 1222 2526.410156 1222 2497.621094 C 1222 2467.328125 1232.621094 2441.851562 1253.859375 2421.179688 C 1275.089844 2400.511719 1301.699219 2390.160156 1333.679688 2390.160156 C 1352.988281 2390.160156 1370.429688 2393.988281 1386 2401.628906 C 1401.558594 2409.269531 1414.308594 2419.980469 1424.25 2433.769531 "/>
    <path fill-rule="nonzero" fill="rgb(30.200195%, 30.200195%, 30.200195%)" fill-opacity="1"
          d="M 1709.199219 2410.28125 C 1693.898438 2410.28125 1679.390625 2414.269531 1665.679688 2422.238281 C 1651.960938 2430.21875 1641.25 2440.96875 1633.550781 2454.480469 C 1625.851562 2467.988281 1622 2483.050781 1622 2499.660156 C 1622 2524.25 1630.53125 2545.011719 1647.570312 2561.949219 C 1664.609375 2578.890625 1685.160156 2587.351562 1709.199219 2587.351562 C 1725.261719 2587.351562 1740.121094 2583.460938 1753.789062 2575.671875 C 1767.460938 2567.890625 1778.121094 2557.230469 1785.769531 2543.71875 C 1793.421875 2530.210938 1797.25 2515.199219 1797.25 2498.671875 C 1797.25 2482.25 1793.421875 2467.410156 1785.769531 2454.121094 C 1778.121094 2440.851562 1767.339844 2430.21875 1753.441406 2422.238281 C 1739.539062 2414.269531 1724.789062 2410.28125 1709.199219 2410.28125 Z M 1708.289062 2390.160156 C 1739.628906 2390.160156 1765.851562 2400.621094 1786.960938 2421.53125 C 1808.070312 2442.441406 1818.628906 2468.179688 1818.628906 2498.75 C 1818.628906 2529.039062 1808.101562 2554.71875 1787.03125 2575.828125 C 1765.96875 2596.921875 1740.28125 2607.46875 1709.980469 2607.46875 C 1679.300781 2607.46875 1653.398438 2596.96875 1632.289062 2575.960938 C 1611.179688 2554.960938 1600.621094 2529.550781 1600.621094 2499.730469 C 1600.621094 2479.851562 1605.429688 2461.429688 1615.050781 2444.460938 C 1624.671875 2427.480469 1637.78125 2414.199219 1654.378906 2404.578125 C 1670.988281 2394.96875 1688.960938 2390.160156 1708.289062 2390.160156 "/>
    <path fill-rule="nonzero" fill="rgb(30.200195%, 30.200195%, 30.200195%)" fill-opacity="1"
          d="M 1994.71875 2602.261719 L 2024.339844 2395.371094 L 2027.710938 2395.371094 L 2111.808594 2565.128906 L 2195.109375 2395.371094 L 2198.421875 2395.371094 L 2228.199219 2602.261719 L 2207.921875 2602.261719 L 2187.480469 2454.300781 L 2114.328125 2602.261719 L 2109.039062 2602.261719 L 2035.019531 2453.179688 L 2014.691406 2602.261719 L 1994.71875 2602.261719 "/>
    <path fill-rule="nonzero" fill="rgb(30.200195%, 30.200195%, 30.200195%)" fill-opacity="1"
          d="M 2433.410156 2415.628906 L 2433.410156 2485.808594 L 2468.429688 2486.230469 C 2482.578125 2486.230469 2492.949219 2484.941406 2499.511719 2482.371094 C 2506.070312 2479.800781 2511.230469 2475.628906 2514.980469 2469.878906 C 2518.730469 2464.128906 2520.609375 2457.691406 2520.609375 2450.570312 C 2520.609375 2443.648438 2518.730469 2437.308594 2514.980469 2431.550781 C 2511.230469 2425.800781 2506.28125 2421.699219 2500.140625 2419.269531 C 2494 2416.839844 2483.941406 2415.628906 2469.96875 2415.628906 Z M 2412.730469 2395.371094 L 2453.941406 2395.371094 C 2477.570312 2395.371094 2493.511719 2396.410156 2501.761719 2398.460938 C 2513.570312 2401.371094 2523.230469 2407.351562 2530.730469 2416.398438 C 2538.230469 2425.449219 2541.980469 2436.808594 2541.980469 2450.5 C 2541.980469 2464.289062 2538.328125 2475.660156 2531.011719 2484.609375 C 2523.699219 2493.570312 2513.621094 2499.589844 2500.78125 2502.679688 C 2491.398438 2504.929688 2473.859375 2506.058594 2448.171875 2506.058594 L 2433.410156 2506.058594 L 2433.410156 2602.261719 L 2412.730469 2602.261719 L 2412.730469 2395.371094 "/>
    <path fill-rule="nonzero" fill="rgb(30.200195%, 30.200195%, 30.200195%)" fill-opacity="1"
          d="M 2809.28125 2439.328125 L 2773.828125 2514.21875 L 2844.558594 2514.21875 Z M 2811.890625 2395.371094 L 2908.371094 2602.261719 L 2886.039062 2602.261719 L 2853.5 2534.191406 L 2764.371094 2534.191406 L 2732.140625 2602.261719 L 2709.070312 2602.261719 L 2806.828125 2395.371094 L 2811.890625 2395.371094 "/>
    <path fill-rule="nonzero" fill="rgb(30.200195%, 30.200195%, 30.200195%)" fill-opacity="1"
          d="M 3084.609375 2602.261719 L 3084.609375 2395.371094 L 3089.109375 2395.371094 L 3226.800781 2553.96875 L 3226.800781 2395.371094 L 3247.199219 2395.371094 L 3247.199219 2602.261719 L 3242.558594 2602.261719 L 3105.980469 2445.601562 L 3105.980469 2602.261719 L 3084.609375 2602.261719 "/>
    <path fill-rule="nonzero" fill="rgb(30.200195%, 30.200195%, 30.200195%)" fill-opacity="1"
          d="M 3425.261719 2395.371094 L 3449.039062 2395.371094 L 3501.980469 2480.699219 L 3554.089844 2395.371094 L 3578 2395.371094 L 3512.460938 2503.390625 L 3512.460938 2602.261719 L 3492.058594 2602.261719 L 3492.058594 2503.390625 L 3425.261719 2395.371094 "/>
    <path fill-rule="nonzero" fill="rgb(30.200195%, 30.200195%, 30.200195%)" fill-opacity="1"
          d="M 1553.449219 2701.570312 L 1553.449219 2691.71875 L 1608.570312 2691.71875 L 1608.570312 2701.570312 L 1586.140625 2701.570312 L 1586.140625 2792.328125 L 1575.878906 2792.328125 L 1575.878906 2701.570312 L 1553.449219 2701.570312 "/>
    <path fill-rule="nonzero" fill="rgb(30.200195%, 30.200195%, 30.200195%)" fill-opacity="1"
          d="M 1732.941406 2713.101562 L 1715.699219 2749.511719 L 1750.101562 2749.511719 Z M 1734.210938 2691.71875 L 1781.128906 2792.328125 L 1770.269531 2792.328125 L 1754.441406 2759.230469 L 1711.101562 2759.230469 L 1695.429688 2792.328125 L 1684.210938 2792.328125 L 1731.75 2691.71875 L 1734.210938 2691.71875 "/>
    <path fill-rule="nonzero" fill="rgb(30.200195%, 30.200195%, 30.200195%)" fill-opacity="1"
          d="M 1963.800781 2708.609375 L 1956 2716 C 1950.390625 2710.488281 1944.25 2706.300781 1937.570312 2703.449219 C 1930.890625 2700.601562 1924.378906 2699.179688 1918.039062 2699.179688 C 1910.160156 2699.179688 1902.640625 2701.121094 1895.511719 2704.988281 C 1888.371094 2708.871094 1882.851562 2714.121094 1878.921875 2720.761719 C 1875 2727.390625 1873.039062 2734.398438 1873.039062 2741.789062 C 1873.039062 2749.359375 1875.070312 2756.550781 1879.128906 2763.371094 C 1883.191406 2770.179688 1888.800781 2775.539062 1895.949219 2779.441406 C 1903.109375 2783.328125 1910.949219 2785.289062 1919.480469 2785.289062 C 1929.828125 2785.289062 1938.578125 2782.371094 1945.738281 2776.53125 C 1952.898438 2770.691406 1957.140625 2763.121094 1958.460938 2753.828125 L 1926.390625 2753.828125 L 1926.390625 2744.109375 L 1969.75 2744.109375 C 1969.660156 2759.660156 1965.039062 2772 1955.898438 2781.140625 C 1946.761719 2790.289062 1934.53125 2794.859375 1919.210938 2794.859375 C 1900.609375 2794.859375 1885.878906 2788.519531 1875.019531 2775.851562 C 1866.679688 2766.089844 1862.511719 2754.800781 1862.511719 2741.988281 C 1862.511719 2732.460938 1864.898438 2723.601562 1869.691406 2715.390625 C 1874.480469 2707.179688 1881.039062 2700.769531 1889.390625 2696.140625 C 1897.730469 2691.511719 1907.171875 2689.191406 1917.699219 2689.191406 C 1926.230469 2689.191406 1934.25 2690.730469 1941.78125 2693.808594 C 1949.300781 2696.890625 1956.640625 2701.820312 1963.800781 2708.609375 "/>
    <path fill-rule="nonzero" fill="rgb(30.200195%, 30.200195%, 30.200195%)" fill-opacity="1"
          d="M 2058.929688 2691.71875 L 2068.988281 2691.71875 L 2068.988281 2782.621094 L 2107.699219 2782.621094 L 2107.699219 2792.328125 L 2058.929688 2792.328125 L 2058.929688 2691.71875 "/>
    <path fill-rule="nonzero" fill="rgb(30.200195%, 30.200195%, 30.200195%)" fill-opacity="1"
          d="M 2192.21875 2691.71875 L 2202.28125 2691.71875 L 2202.28125 2792.328125 L 2192.21875 2792.328125 L 2192.21875 2691.71875 "/>
    <path fill-rule="nonzero" fill="rgb(30.200195%, 30.200195%, 30.200195%)" fill-opacity="1"
          d="M 2295.429688 2792.328125 L 2295.429688 2691.71875 L 2297.621094 2691.71875 L 2364.578125 2768.839844 L 2364.578125 2691.71875 L 2374.488281 2691.71875 L 2374.488281 2792.328125 L 2372.238281 2792.328125 L 2305.828125 2716.148438 L 2305.828125 2792.328125 L 2295.429688 2792.328125 "/>
    <path fill-rule="nonzero" fill="rgb(30.200195%, 30.200195%, 30.200195%)" fill-opacity="1"
          d="M 2469.078125 2691.71875 L 2526.730469 2691.71875 L 2526.730469 2701.570312 L 2479.128906 2701.570312 L 2479.128906 2733.101562 L 2526.320312 2733.101562 L 2526.320312 2742.949219 L 2479.128906 2742.949219 L 2479.128906 2782.480469 L 2526.320312 2782.480469 L 2526.320312 2792.328125 L 2469.078125 2792.328125 L 2469.078125 2691.71875 "/>
    <path fill-rule="nonzero" fill="rgb(30.200195%, 30.200195%, 30.200195%)" fill-opacity="1"
          d="M 2722.808594 2691.71875 L 2732.859375 2691.71875 L 2732.859375 2733.921875 L 2784.089844 2733.921875 L 2784.089844 2691.71875 L 2794.140625 2691.71875 L 2794.140625 2792.328125 L 2784.089844 2792.328125 L 2784.089844 2743.769531 L 2732.859375 2743.769531 L 2732.859375 2792.328125 L 2722.808594 2792.328125 L 2722.808594 2691.71875 "/>
    <path fill-rule="nonzero" fill="rgb(30.200195%, 30.200195%, 30.200195%)" fill-opacity="1"
          d="M 2888.730469 2691.71875 L 2946.378906 2691.71875 L 2946.378906 2701.570312 L 2898.78125 2701.570312 L 2898.78125 2733.101562 L 2945.96875 2733.101562 L 2945.96875 2742.949219 L 2898.78125 2742.949219 L 2898.78125 2782.480469 L 2945.96875 2782.480469 L 2945.96875 2792.328125 L 2888.730469 2792.328125 L 2888.730469 2691.71875 "/>
    <path fill-rule="nonzero" fill="rgb(30.200195%, 30.200195%, 30.200195%)" fill-opacity="1"
          d="M 3044.378906 2701.570312 L 3044.378906 2735.769531 L 3061.71875 2735.910156 C 3068.429688 2735.910156 3073.390625 2735.269531 3076.621094 2733.988281 C 3079.828125 2732.71875 3082.351562 2730.671875 3084.148438 2727.871094 C 3085.949219 2725.058594 3086.859375 2721.929688 3086.859375 2718.460938 C 3086.859375 2715.089844 3085.941406 2712.019531 3084.121094 2709.269531 C 3082.289062 2706.511719 3079.890625 2704.539062 3076.921875 2703.351562 C 3073.960938 2702.171875 3069.019531 2701.570312 3062.128906 2701.570312 Z M 3034.328125 2691.71875 L 3054.371094 2691.71875 C 3065.539062 2691.71875 3073.109375 2692.179688 3077.078125 2693.089844 C 3083.050781 2694.460938 3087.898438 2697.398438 3091.640625 2701.890625 C 3095.378906 2706.390625 3097.25 2711.929688 3097.25 2718.5 C 3097.25 2723.980469 3095.960938 2728.789062 3093.390625 2732.949219 C 3090.808594 2737.101562 3087.128906 2740.238281 3082.339844 2742.359375 C 3077.558594 2744.480469 3070.941406 2745.570312 3062.511719 2745.621094 L 3098.691406 2792.328125 L 3086.25 2792.328125 L 3050.070312 2745.621094 L 3044.378906 2745.621094 L 3044.378906 2792.328125 L 3034.328125 2792.328125 L 3034.328125 2691.71875 "/>
    <path fill-rule="nonzero" fill="rgb(30.200195%, 30.200195%, 30.200195%)" fill-opacity="1"
          d="M 3188.898438 2691.71875 L 3246.550781 2691.71875 L 3246.550781 2701.570312 L 3198.949219 2701.570312 L 3198.949219 2733.101562 L 3246.140625 2733.101562 L 3246.140625 2742.949219 L 3198.949219 2742.949219 L 3198.949219 2782.480469 L 3246.140625 2782.480469 L 3246.140625 2792.328125 L 3188.898438 2792.328125 L 3188.898438 2691.71875 "/>
    <path fill-rule="nonzero" fill="rgb(29.80957%, 29.417419%, 89.84375%)" fill-opacity="1"
          d="M 1833.03125 1995.550781 C 1852.628906 2023.210938 1874.421875 2049.878906 1898.589844 2075.03125 L 1872.441406 1939.03125 L 1833.03125 1995.550781 "/>
    <path fill-rule="nonzero" fill="rgb(30.200195%, 37.255859%, 100%)" fill-opacity="1"
          d="M 1883.601562 1940.851562 L 1872.441406 1939.03125 L 1898.589844 2075.03125 C 1939.191406 2117.261719 1986.539062 2155.140625 2041.519531 2186.039062 L 2103.5 2095.398438 C 2015.96875 2058.410156 1942.878906 2004.898438 1883.601562 1940.851562 "/>
    <path fill-rule="nonzero" fill="rgb(30.200195%, 37.255859%, 100%)" fill-opacity="1"
          d="M 2116.148438 2033.769531 C 2087.199219 2010.71875 2060.320312 1988.109375 2035.648438 1965.570312 L 1986.691406 1957.609375 C 2024.390625 1984.269531 2067.359375 2009.71875 2116.148438 2033.769531 "/>
    <path fill-rule="nonzero" fill="rgb(42.747498%, 34.521484%, 96.09375%)" fill-opacity="1"
          d="M 1802.621094 1949.148438 C 1812.101562 1964.859375 1822.261719 1980.339844 1833.03125 1995.550781 L 1872.441406 1939.03125 L 1802.621094 1949.148438 "/>
    <path fill-rule="nonzero" fill="rgb(13.719177%, 35.693359%, 94.139099%)" fill-opacity="1"
          d="M 2103.5 2095.398438 L 2041.519531 2186.039062 C 2107.671875 2223.230469 2184.871094 2250.300781 2274.769531 2262.578125 L 2228.871094 2134.410156 C 2184.128906 2125.089844 2142.410156 2111.859375 2103.5 2095.398438 "/>
    <path fill-rule="nonzero" fill="rgb(29.80957%, 29.417419%, 89.84375%)" fill-opacity="1"
          d="M 1708.039062 1726.519531 C 1728.089844 1798.769531 1758.511719 1876.109375 1802.621094 1949.148438 L 1872.441406 1939.03125 L 1708.039062 1726.519531 "/>
    <path fill-rule="nonzero" fill="rgb(31.762695%, 33.325195%, 96.484375%)" fill-opacity="1"
          d="M 1883.601562 1940.851562 C 1880.210938 1937.179688 1876.96875 1933.398438 1873.660156 1929.671875 L 1872.441406 1939.03125 L 1883.601562 1940.851562 "/>
    <path fill-rule="nonzero" fill="rgb(31.762695%, 33.325195%, 96.484375%)" fill-opacity="1"
          d="M 2169.53125 1977.839844 L 2049.550781 1797.300781 C 2002.789062 1755.671875 1968.699219 1705.390625 1949.898438 1647.351562 L 1916.949219 1597.769531 L 1908.699219 1661.078125 C 1929.199219 1804.789062 2022.78125 1929.730469 2169.53125 1977.839844 "/>
    <path fill-rule="nonzero" fill="rgb(31.762695%, 33.325195%, 96.484375%)" fill-opacity="1"
          d="M 1986.691406 1957.609375 L 2035.648438 1965.570312 C 1971.730469 1907.179688 1922.878906 1849.210938 1892.5 1785.21875 L 1881.910156 1866.480469 C 1910.960938 1898.140625 1945.671875 1928.601562 1986.691406 1957.609375 "/>
    <path fill-rule="nonzero" fill="rgb(29.80957%, 29.417419%, 89.84375%)" fill-opacity="1"
          d="M 1881.910156 1866.480469 L 1892.5 1785.21875 C 1868.25 1734.109375 1855.761719 1679.140625 1856.921875 1616.980469 L 1766.878906 1645.800781 C 1782.589844 1723.46875 1818.878906 1797.808594 1881.910156 1866.480469 "/>
    <path fill-rule="nonzero" fill="rgb(29.80957%, 29.417419%, 89.84375%)" fill-opacity="1"
          d="M 1904.429688 1601.78125 C 1904.480469 1621.800781 1905.921875 1641.609375 1908.699219 1661.078125 L 1916.949219 1597.769531 L 1904.429688 1601.78125 "/>
    <path fill-rule="nonzero" fill="rgb(29.80957%, 29.417419%, 89.84375%)" fill-opacity="1"
          d="M 1873.660156 1929.671875 C 1803.851562 1850.761719 1753.878906 1757.269531 1722.53125 1659.988281 L 1693.96875 1669.128906 C 1697.929688 1687.761719 1702.621094 1706.949219 1708.039062 1726.519531 L 1872.441406 1939.03125 L 1873.660156 1929.671875 "/>
    <path fill-rule="nonzero" fill="rgb(26.660156%, 33.714294%, 87.889099%)" fill-opacity="1"
          d="M 1949.898438 1647.351562 C 1945.671875 1634.300781 1942.238281 1620.851562 1939.578125 1607.039062 L 1916.949219 1597.769531 L 1949.898438 1647.351562 "/>
    <path fill-rule="nonzero" fill="rgb(26.660156%, 33.714294%, 87.889099%)" fill-opacity="1"
          d="M 2047.160156 1651.101562 C 2029.679688 1652.058594 2011.179688 1653.621094 1991.5 1655.871094 C 2014.988281 1748.898438 2078.589844 1811.539062 2176.609375 1861.550781 L 2176.609375 1704.109375 L 2047.160156 1651.101562 "/>
    <path fill-rule="nonzero" fill="rgb(26.660156%, 33.714294%, 87.889099%)" fill-opacity="1"
          d="M 2176.609375 1980.019531 L 2176.609375 1876.421875 C 2127.671875 1855.328125 2084.960938 1828.820312 2049.550781 1797.300781 L 2169.53125 1977.839844 C 2171.859375 1978.609375 2174.25 1979.289062 2176.609375 1980.019531 "/>
    <path fill-rule="nonzero" fill="rgb(9.423828%, 49.414062%, 98.046875%)" fill-opacity="1"
          d="M 2228.871094 2134.410156 L 2274.769531 2262.578125 C 2295.421875 2265.398438 2316.769531 2267.390625 2338.769531 2268.589844 L 2375.320312 2150.210938 C 2323.410156 2149.289062 2274.550781 2143.929688 2228.871094 2134.410156 "/>
    <path fill-rule="nonzero" fill="rgb(9.423828%, 49.414062%, 98.046875%)" fill-opacity="1"
          d="M 2347.96875 1997.140625 L 2218.800781 1990.621094 C 2258.699219 1998.429688 2301.878906 2000.878906 2347.96875 1997.140625 "/>
    <path fill-rule="nonzero" fill="rgb(14.892578%, 45.872498%, 92.576599%)" fill-opacity="1"
          d="M 2218.800781 1990.621094 L 2347.96875 1997.140625 C 2368.460938 1995.480469 2389.53125 1992.621094 2411.148438 1988.410156 L 2176.609375 1704.109375 L 2176.609375 1861.550781 C 2217.339844 1882.328125 2263.871094 1900.980469 2316.160156 1918.640625 C 2265.449219 1908.820312 2218.761719 1894.589844 2176.609375 1876.421875 L 2176.609375 1980.019531 C 2190.238281 1984.210938 2204.289062 1987.78125 2218.800781 1990.621094 "/>
    <path fill-rule="nonzero" fill="rgb(53.318787%, 23.535156%, 95.701599%)" fill-opacity="1"
          d="M 1766.878906 1645.800781 L 1856.921875 1616.980469 C 1857.410156 1590.839844 1860.371094 1563.378906 1865.800781 1534.441406 L 1772.210938 1418.570312 C 1755.511719 1495.949219 1752.019531 1572.359375 1766.878906 1645.800781 "/>
    <path fill-rule="nonzero" fill="rgb(53.318787%, 23.535156%, 95.701599%)" fill-opacity="1"
          d="M 1701.578125 1582.011719 L 1686.140625 1627.910156 C 1688.371094 1641.28125 1690.96875 1655.03125 1693.96875 1669.128906 L 1722.53125 1659.988281 C 1714.21875 1634.179688 1707.320312 1608.128906 1701.578125 1582.011719 "/>
    <path fill-rule="nonzero" fill="rgb(53.318787%, 23.535156%, 95.701599%)" fill-opacity="1"
          d="M 1904.828125 1582.769531 C 1904.570312 1589.121094 1904.421875 1595.460938 1904.429688 1601.78125 L 1916.949219 1597.769531 L 1904.828125 1582.769531 "/>
    <path fill-rule="nonzero" fill="rgb(52.146912%, 23.925781%, 96.484375%)" fill-opacity="1"
          d="M 1682.539062 1439.210938 C 1672.890625 1469.019531 1671.441406 1539.710938 1686.140625 1627.910156 L 1701.578125 1582.011719 C 1691.070312 1534.160156 1684.671875 1486.140625 1682.539062 1439.210938 "/>
    <path fill-rule="nonzero" fill="rgb(65.818787%, 39.208984%, 87.5%)" fill-opacity="1"
          d="M 1772.210938 1418.570312 L 1865.800781 1534.441406 C 1873.628906 1492.738281 1886.640625 1447.949219 1905.410156 1399.210938 L 1775.441406 1404.320312 C 1774.320312 1409.078125 1773.238281 1413.828125 1772.210938 1418.570312 "/>
    <path fill-rule="nonzero" fill="rgb(65.818787%, 39.208984%, 87.5%)" fill-opacity="1"
          d="M 2160.558594 1654.808594 C 2128.589844 1650.128906 2091.21875 1648.660156 2047.160156 1651.101562 L 2176.609375 1704.109375 L 2160.558594 1654.808594 "/>
    <path fill-rule="nonzero" fill="rgb(65.818787%, 39.208984%, 87.5%)" fill-opacity="1"
          d="M 1939.578125 1607.039062 C 1927.53125 1544.511719 1931.890625 1474.210938 1955.109375 1397.25 L 1953.769531 1397.308594 C 1923.25 1457.808594 1907.410156 1521.011719 1904.828125 1582.769531 L 1916.949219 1597.769531 L 1939.578125 1607.039062 "/>
    <path fill-rule="nonzero" fill="rgb(5.883789%, 61.131287%, 96.484375%)" fill-opacity="1"
          d="M 2390.839844 2150.601562 C 2385.570312 2150.601562 2380.519531 2150.308594 2375.320312 2150.210938 L 2338.769531 2268.589844 C 2354.269531 2269.441406 2370.019531 2270 2386.210938 2270 C 2471.660156 2270 2550.121094 2252.410156 2620.148438 2221.660156 L 2539.078125 2131.589844 C 2493.769531 2143.890625 2444.339844 2150.601562 2390.839844 2150.601562 "/>
    <path fill-rule="nonzero" fill="rgb(24.31488%, 61.914062%, 85.9375%)" fill-opacity="1"
          d="M 2411.148438 1988.410156 C 2416.390625 1987.390625 2421.671875 1986.261719 2426.980469 1985.089844 L 2442.980469 1939.621094 C 2371.21875 1856.441406 2358.488281 1748.730469 2265.980469 1690.910156 L 2176.609375 1704.109375 L 2411.148438 1988.410156 "/>
    <path fill-rule="nonzero" fill="rgb(34.910583%, 49.414062%, 81.25%)" fill-opacity="1"
          d="M 2193.828125 1661.28125 C 2183.421875 1658.710938 2172.371094 1656.539062 2160.558594 1654.808594 L 2176.609375 1704.109375 L 2193.828125 1661.28125 "/>
    <path fill-rule="nonzero" fill="rgb(14.892578%, 45.872498%, 92.576599%)" fill-opacity="1"
          d="M 2265.980469 1690.910156 C 2246.078125 1678.480469 2222.488281 1668.359375 2193.828125 1661.28125 L 2176.609375 1704.109375 L 2265.980469 1690.910156 "/>
    <path fill-rule="nonzero" fill="rgb(7.835388%, 70.896912%, 92.1875%)" fill-opacity="1"
          d="M 2539.078125 2131.589844 L 2620.148438 2221.660156 C 2630.210938 2217.238281 2640.039062 2212.460938 2649.75 2207.511719 L 2668.53125 2075.230469 C 2630 2099.371094 2586.859375 2118.621094 2539.078125 2131.589844 "/>
    <path fill-rule="nonzero" fill="rgb(12.547302%, 78.90625%, 90.234375%)" fill-opacity="1"
          d="M 2476.171875 1972.261719 C 2463.75 1961.96875 2452.820312 1951.019531 2442.980469 1939.621094 L 2426.980469 1985.089844 C 2443.089844 1981.511719 2459.46875 1977.308594 2476.171875 1972.261719 "/>
    <path fill-rule="nonzero" fill="rgb(2.745056%, 80.076599%, 93.359375%)" fill-opacity="1"
          d="M 2668.53125 2075.230469 L 2649.75 2207.511719 C 2701.449219 2181.160156 2748.101562 2147.511719 2789.03125 2108.460938 L 2751.878906 2008.601562 C 2727.089844 2033.53125 2699.300781 2055.949219 2668.53125 2075.230469 "/>
    <path fill-rule="nonzero" fill="rgb(7.446289%, 95.3125%, 96.09375%)" fill-opacity="1"
          d="M 2826.140625 1912.511719 C 2805.511719 1947.25 2780.710938 1979.601562 2751.878906 2008.601562 L 2789.03125 2108.460938 C 2839.109375 2060.691406 2880.601562 2004.898438 2912.398438 1944.699219 L 2826.140625 1912.511719 "/>
    <path fill-rule="nonzero" fill="rgb(7.446289%, 95.3125%, 96.09375%)" fill-opacity="1"
          d="M 2785.539062 1898.828125 C 2785.800781 1898.441406 2786.039062 1898.039062 2786.308594 1897.648438 L 2786.070312 1897.558594 C 2785.878906 1897.980469 2785.730469 1898.398438 2785.539062 1898.828125 "/>
    <path fill-rule="nonzero" fill="rgb(7.446289%, 95.3125%, 96.09375%)" fill-opacity="1"
          d="M 2968.761719 2047.699219 C 2983.929688 2025.378906 2997.648438 2003.261719 3010.410156 1981.269531 L 2997.359375 1976.398438 C 2988.898438 1999.859375 2979.449219 2023.601562 2968.761719 2047.699219 "/>
    <path fill-rule="nonzero" fill="rgb(11.376953%, 94.921875%, 49.414062%)" fill-opacity="1"
          d="M 2895.339844 1719.308594 C 2893.640625 1729.96875 2891.570312 1740.578125 2889.261719 1751.128906 L 2930.839844 1726.359375 L 2895.339844 1719.308594 "/>
    <path fill-rule="nonzero" fill="rgb(11.376953%, 94.921875%, 49.414062%)" fill-opacity="1"
          d="M 2820.851562 1791.890625 L 2845.441406 1777.238281 C 2852.429688 1755.828125 2857.738281 1734.21875 2861.480469 1712.578125 L 2830.351562 1706.390625 C 2830.230469 1733.960938 2827.121094 1762.488281 2820.851562 1791.890625 "/>
    <path fill-rule="nonzero" fill="rgb(21.972656%, 75.78125%, 65.429688%)" fill-opacity="1"
          d="M 2436.890625 1470.339844 C 2464.101562 1523.011719 2504.179688 1568.261719 2585.640625 1594.808594 L 2671.191406 1479.070312 L 2436.890625 1470.339844 "/>
    <path fill-rule="nonzero" fill="rgb(9.423828%, 81.25%, 69.334412%)" fill-opacity="1"
          d="M 2585.640625 1594.808594 C 2634.171875 1610.628906 2697.339844 1619.820312 2781.339844 1619.949219 C 2779.230469 1604.140625 2775.820312 1589.101562 2771.46875 1574.578125 L 2671.191406 1479.070312 L 2585.640625 1594.808594 "/>
    <path fill-rule="nonzero" fill="rgb(9.423828%, 81.25%, 69.334412%)" fill-opacity="1"
          d="M 2898.578125 1695.640625 C 2897.648438 1703.550781 2896.601562 1711.441406 2895.339844 1719.308594 L 2930.839844 1726.359375 L 2898.578125 1695.640625 "/>
    <path fill-rule="nonzero" fill="rgb(9.423828%, 81.25%, 69.334412%)" fill-opacity="1"
          d="M 2830.351562 1706.390625 L 2861.480469 1712.578125 C 2864.179688 1696.921875 2866.050781 1681.261719 2867.078125 1665.640625 L 2820.621094 1621.390625 C 2827.128906 1648.558594 2830.46875 1676.910156 2830.351562 1706.390625 "/>
    <path fill-rule="nonzero" fill="rgb(12.939453%, 87.5%, 97.65625%)" fill-opacity="1"
          d="M 2997.359375 1976.398438 L 3010.410156 1981.269531 C 3013.808594 1975.390625 3017.148438 1969.53125 3020.390625 1963.671875 L 3010.519531 1937.519531 C 3006.480469 1950.378906 3002.070312 1963.351562 2997.359375 1976.398438 "/>
    <path fill-rule="nonzero" fill="rgb(12.939453%, 87.5%, 97.65625%)" fill-opacity="1"
          d="M 2786.070312 1897.558594 L 2786.308594 1897.648438 C 2812.328125 1859.101562 2831.960938 1818.550781 2845.441406 1777.238281 L 2820.851562 1791.890625 C 2813.578125 1826 2802.128906 1861.25 2786.070312 1897.558594 "/>
    <path fill-rule="nonzero" fill="rgb(12.939453%, 87.5%, 97.65625%)" fill-opacity="1"
          d="M 2964.058594 1814.410156 L 2930.839844 1726.359375 L 2889.261719 1751.128906 C 2876.871094 1807.75 2855.800781 1862.558594 2826.140625 1912.511719 L 2912.398438 1944.699219 C 2934.429688 1902.980469 2951.769531 1859.160156 2964.058594 1814.410156 "/>
    <path fill-rule="nonzero" fill="rgb(11.376953%, 94.921875%, 49.414062%)" fill-opacity="1"
          d="M 2964.058594 1814.410156 C 2974.769531 1775.410156 2981.628906 1735.75 2984.371094 1696.160156 L 2930.839844 1726.359375 L 2964.058594 1814.410156 "/>
    <path fill-rule="nonzero" fill="rgb(11.376953%, 94.921875%, 49.414062%)" fill-opacity="1"
          d="M 3048.558594 1659.949219 C 3052.710938 1747.921875 3041.121094 1840.03125 3010.519531 1937.519531 L 3020.390625 1963.671875 C 3031.738281 1943.179688 3042.160156 1922.808594 3051.511719 1902.609375 L 3123.71875 1617.558594 L 3048.558594 1659.949219 "/>
    <path fill-rule="nonzero" fill="rgb(38.426208%, 94.139099%, 65.039062%)" fill-opacity="1"
          d="M 3051.511719 1902.609375 C 3097.070312 1804.230469 3119.5 1709.421875 3123.941406 1618.441406 L 3123.71875 1617.558594 L 3051.511719 1902.609375 "/>
    <path fill-rule="nonzero" fill="rgb(35.301208%, 94.921875%, 37.255859%)" fill-opacity="1"
          d="M 3123.941406 1618.441406 C 3123.949219 1618.199219 3123.980469 1617.941406 3123.988281 1617.699219 L 3123.71875 1617.558594 L 3123.941406 1618.441406 "/>
    <path fill-rule="nonzero" fill="rgb(7.054138%, 95.701599%, 95.3125%)" fill-opacity="1"
          d="M 2771.46875 1574.578125 C 2758.800781 1532.351562 2736.898438 1495.148438 2706.21875 1461.390625 L 2671.191406 1479.070312 L 2771.46875 1574.578125 "/>
    <path fill-rule="nonzero" fill="rgb(7.054138%, 95.701599%, 95.3125%)" fill-opacity="1"
          d="M 2930.839844 1426.570312 C 2919.960938 1405.96875 2907.410156 1386.070312 2893.121094 1367.050781 L 2846.101562 1390.789062 C 2893.730469 1482.628906 2910.871094 1590.46875 2898.578125 1695.640625 L 2930.839844 1726.359375 L 2930.839844 1426.570312 "/>
    <path fill-rule="nonzero" fill="rgb(7.054138%, 95.701599%, 95.3125%)" fill-opacity="1"
          d="M 2724.71875 1452.050781 C 2772.519531 1500.851562 2805.371094 1557.78125 2820.621094 1621.390625 L 2867.078125 1665.640625 C 2873.078125 1574.921875 2851.148438 1486.019531 2804.210938 1411.929688 L 2724.71875 1452.050781 "/>
    <path fill-rule="nonzero" fill="rgb(52.929688%, 100%, 61.914062%)" fill-opacity="1"
          d="M 3011.550781 1460.800781 C 3032.5 1525.03125 3045.320312 1591.230469 3048.558594 1659.949219 L 3123.71875 1617.558594 L 3011.550781 1460.800781 "/>
    <path fill-rule="nonzero" fill="rgb(52.929688%, 100%, 61.914062%)" fill-opacity="1"
          d="M 2984.371094 1696.160156 C 2990.890625 1602.140625 2974.21875 1508.75 2930.839844 1426.570312 L 2930.839844 1726.359375 L 2984.371094 1696.160156 "/>
    <path fill-rule="nonzero" fill="rgb(41.575623%, 100%, 30.589294%)" fill-opacity="1"
          d="M 3123.988281 1617.699219 C 3124.011719 1617.480469 3124.03125 1617.261719 3124.039062 1617.050781 L 3123.71875 1617.558594 L 3123.988281 1617.699219 "/>
    <path fill-rule="nonzero" fill="rgb(75.78125%, 93.75%, 3.529358%)" fill-opacity="1"
          d="M 3011.550781 1460.800781 L 3123.71875 1617.558594 L 3124.039062 1617.050781 C 3127.738281 1538.089844 3117.921875 1462.019531 3098.03125 1389 L 2970.511719 1357.738281 C 2986.429688 1391.570312 3000.160156 1425.898438 3011.550781 1460.800781 "/>
    <path fill-rule="nonzero" fill="rgb(21.166992%, 90.234375%, 34.104919%)" fill-opacity="1"
          d="M 2703.371094 1218.078125 L 2702.058594 1228.761719 C 2765.078125 1270.800781 2812.96875 1326.898438 2846.101562 1390.789062 L 2893.121094 1367.050781 C 2847.859375 1306.808594 2785.179688 1255.410156 2703.371094 1218.078125 "/>
    <path fill-rule="nonzero" fill="rgb(21.166992%, 90.234375%, 34.104919%)" fill-opacity="1"
          d="M 2706.21875 1461.390625 C 2697.25 1451.511719 2687.339844 1441.988281 2676.910156 1432.648438 L 2671.191406 1479.070312 L 2706.21875 1461.390625 "/>
    <path fill-rule="nonzero" fill="rgb(21.166992%, 90.234375%, 34.104919%)" fill-opacity="1"
          d="M 2693.570312 1297.570312 L 2679.5 1411.671875 C 2695.800781 1424.421875 2710.859375 1437.898438 2724.71875 1452.050781 L 2804.210938 1411.929688 C 2776.089844 1367.550781 2739.03125 1328.488281 2693.570312 1297.570312 "/>
    <path fill-rule="nonzero" fill="rgb(30.589294%, 85.9375%, 45.872498%)" fill-opacity="1"
          d="M 2393.128906 1363.78125 C 2407.441406 1400.339844 2419.578125 1436.828125 2436.890625 1470.339844 L 2671.191406 1479.070312 L 2509.910156 1324.949219 C 2498.878906 1319.421875 2487.589844 1313.921875 2475.960938 1308.441406 C 2484.660156 1311.191406 2493.21875 1314.078125 2501.660156 1317.058594 L 2477.058594 1293.550781 L 2393.128906 1363.78125 "/>
    <path fill-rule="nonzero" fill="rgb(67.771912%, 49.414062%, 69.726562%)" fill-opacity="1"
          d="M 2367.289062 1226.410156 C 2350.671875 1228.171875 2333.71875 1230.519531 2316.371094 1233.660156 C 2354.511719 1273.480469 2375.480469 1318.679688 2393.128906 1363.78125 L 2477.058594 1293.550781 L 2367.289062 1226.410156 "/>
    <path fill-rule="nonzero" fill="rgb(38.426208%, 94.139099%, 65.039062%)" fill-opacity="1"
          d="M 2676.691406 1432.449219 C 2633.109375 1393.460938 2577.179688 1358.628906 2509.910156 1324.949219 L 2671.191406 1479.070312 C 2671.191406 1479.070312 2673.328125 1460.828125 2676.691406 1432.449219 "/>
    <path fill-rule="nonzero" fill="rgb(38.426208%, 94.139099%, 65.039062%)" fill-opacity="1"
          d="M 2631.558594 1190.46875 C 2656.558594 1201.21875 2679.710938 1213.929688 2701.191406 1228.191406 C 2701.621094 1224.648438 2702.050781 1221.140625 2702.46875 1217.679688 C 2680.210938 1207.570312 2656.691406 1198.390625 2631.558594 1190.46875 "/>
    <path fill-rule="nonzero" fill="rgb(38.426208%, 94.139099%, 65.039062%)" fill-opacity="1"
          d="M 2551.480469 1236.03125 L 2477.058594 1293.550781 L 2501.660156 1317.058594 C 2570.410156 1341.339844 2630.128906 1373.148438 2679.179688 1411.441406 C 2683.050781 1378.878906 2687.898438 1338.140625 2692.851562 1297.058594 C 2652.230469 1269.570312 2604.960938 1248.570312 2551.480469 1236.03125 "/>
    <path fill-rule="nonzero" fill="rgb(38.426208%, 94.139099%, 65.039062%)" fill-opacity="1"
          d="M 2702.46875 1217.679688 C 2702.050781 1221.140625 2701.621094 1224.648438 2701.191406 1228.191406 C 2701.480469 1228.378906 2701.769531 1228.570312 2702.058594 1228.761719 L 2703.371094 1218.078125 C 2703.078125 1217.949219 2702.769531 1217.820312 2702.46875 1217.679688 "/>
    <path fill-rule="nonzero" fill="rgb(38.426208%, 94.139099%, 65.039062%)" fill-opacity="1"
          d="M 2692.851562 1297.058594 C 2687.898438 1338.140625 2683.050781 1378.878906 2679.179688 1411.441406 C 2679.289062 1411.519531 2679.398438 1411.589844 2679.5 1411.671875 L 2693.570312 1297.570312 C 2693.328125 1297.410156 2693.089844 1297.230469 2692.851562 1297.058594 "/>
    <path fill-rule="nonzero" fill="rgb(38.426208%, 94.139099%, 65.039062%)" fill-opacity="1"
          d="M 2676.910156 1432.648438 C 2676.839844 1432.589844 2676.769531 1432.519531 2676.691406 1432.449219 C 2673.328125 1460.828125 2671.191406 1479.070312 2671.191406 1479.070312 L 2676.910156 1432.648438 "/>
    <path fill-rule="nonzero" fill="rgb(89.451599%, 42.358398%, 84.764099%)" fill-opacity="1"
          d="M 1924.519531 1060.519531 L 1993.921875 1213.410156 C 2015.800781 1173.75 2040.441406 1131.960938 2068.03125 1087.75 L 1931.898438 1048.191406 C 1929.421875 1052.289062 1926.96875 1056.398438 1924.519531 1060.519531 "/>
    <path fill-rule="nonzero" fill="rgb(81.639099%, 30.200195%, 100%)" fill-opacity="1"
          d="M 1849.171875 1200.941406 L 1813.050781 1284.648438 C 1797.601562 1324.589844 1784.820312 1364.570312 1775.441406 1404.320312 L 1905.410156 1399.210938 C 1927.101562 1342.878906 1956.46875 1281.269531 1993.921875 1213.410156 L 1924.519531 1060.519531 C 1897.101562 1106.691406 1871.589844 1153.648438 1849.171875 1200.941406 "/>
    <path fill-rule="nonzero" fill="rgb(81.639099%, 30.200195%, 100%)" fill-opacity="1"
          d="M 1956.898438 1391.058594 C 1955.820312 1393.128906 1954.820312 1395.21875 1953.769531 1397.308594 L 1955.109375 1397.25 C 1955.738281 1395.179688 1956.25 1393.148438 1956.898438 1391.058594 "/>
    <path fill-rule="nonzero" fill="rgb(75.78125%, 30.200195%, 90.234375%)" fill-opacity="1"
          d="M 1813.050781 1284.648438 L 1849.171875 1200.941406 C 1835.980469 1228.761719 1823.859375 1256.691406 1813.050781 1284.648438 "/>
    <path fill-rule="nonzero" fill="rgb(93.359375%, 59.959412%, 28.637695%)" fill-opacity="1"
          d="M 2023.308594 907.238281 C 1996.03125 946.808594 1969.21875 987.441406 1943.71875 1028.789062 L 2075.21875 954.820312 L 2023.308594 907.238281 "/>
    <path fill-rule="nonzero" fill="rgb(93.359375%, 39.598083%, 50.584412%)" fill-opacity="1"
          d="M 1943.71875 1028.789062 C 1939.75 1035.238281 1935.808594 1041.710938 1931.898438 1048.191406 L 2068.03125 1087.75 C 2083.578125 1062.828125 2100.078125 1037.140625 2117.5 1010.671875 L 2075.21875 954.820312 L 1943.71875 1028.789062 "/>
    <path fill-rule="nonzero" fill="rgb(96.09375%, 27.43988%, 15.281677%)" fill-opacity="1"
          d="M 2046.738281 873.648438 C 2038.910156 884.761719 2031.089844 895.949219 2023.308594 907.238281 L 2075.21875 954.820312 L 2046.738281 873.648438 "/>
    <path fill-rule="nonzero" fill="rgb(76.5625%, 62.693787%, 27.43988%)" fill-opacity="1"
          d="M 2117.5 1010.671875 C 2135.601562 983.171875 2154.699219 954.828125 2174.859375 925.570312 L 2075.21875 954.820312 L 2117.5 1010.671875 "/>
    <path fill-rule="nonzero" fill="rgb(100%, 49.804688%, 18.041992%)" fill-opacity="1"
          d="M 2124.929688 765.921875 C 2099.179688 800.589844 2072.871094 836.601562 2046.738281 873.648438 L 2075.21875 954.820312 L 2124.929688 765.921875 "/>
    <path fill-rule="nonzero" fill="rgb(97.65625%, 57.226562%, 10.594177%)" fill-opacity="1"
          d="M 2124.929688 765.921875 L 2075.21875 954.820312 L 2174.859375 925.570312 C 2210.328125 874.078125 2249.070312 819.761719 2291.160156 762.410156 L 2199.808594 666.050781 C 2175.921875 697.808594 2150.710938 731.199219 2124.929688 765.921875 "/>
    <path fill-rule="nonzero" fill="rgb(94.139099%, 53.318787%, 29.417419%)" fill-opacity="1"
          d="M 2462.378906 1223.539062 C 2432.199219 1221.960938 2400.449219 1222.890625 2367.289062 1226.410156 L 2477.058594 1293.550781 L 2462.378906 1223.539062 "/>
    <path fill-rule="nonzero" fill="rgb(83.201599%, 65.818787%, 28.637695%)" fill-opacity="1"
          d="M 2606.648438 879.808594 C 2624.929688 898.21875 2642.898438 916.640625 2660.5 935.089844 L 2624.199219 823.761719 L 2606.648438 879.808594 "/>
    <path fill-rule="nonzero" fill="rgb(83.201599%, 65.818787%, 28.637695%)" fill-opacity="1"
          d="M 2551.480469 1236.03125 C 2534.300781 1232 2516.480469 1228.839844 2498.019531 1226.621094 L 2477.058594 1293.550781 L 2551.480469 1236.03125 "/>
    <path fill-rule="nonzero" fill="rgb(96.09375%, 59.959412%, 35.301208%)" fill-opacity="1"
          d="M 2498.019531 1226.621094 C 2486.378906 1225.21875 2474.519531 1224.171875 2462.378906 1223.539062 L 2477.058594 1293.550781 L 2498.019531 1226.621094 "/>
    <path fill-rule="nonzero" fill="rgb(96.09375%, 59.959412%, 35.301208%)" fill-opacity="1"
          d="M 2560.859375 834.320312 C 2576.320312 849.480469 2591.578125 864.640625 2606.648438 879.808594 L 2624.199219 823.761719 L 2560.859375 834.320312 "/>
    <path fill-rule="nonzero" fill="rgb(98.826599%, 77.734375%, 1.567078%)" fill-opacity="1"
          d="M 2660.5 935.089844 C 2697.5 973.871094 2732.871094 1012.789062 2766.128906 1052 L 2854.828125 950.78125 C 2826.640625 916.128906 2797.589844 882.660156 2768.351562 850.410156 L 2624.199219 823.761719 L 2660.5 935.089844 "/>
    <path fill-rule="nonzero" fill="rgb(75.78125%, 93.75%, 3.529358%)" fill-opacity="1"
          d="M 2822.609375 1121.648438 C 2868.671875 1181.25 2909.351562 1241.769531 2943.089844 1303.800781 L 2987.71875 1142.761719 L 2822.609375 1121.648438 "/>
    <path fill-rule="nonzero" fill="rgb(90.625%, 89.84375%, 12.939453%)" fill-opacity="1"
          d="M 2822.609375 1121.648438 L 2987.71875 1142.761719 L 2985.5 1134.300781 C 2946.558594 1069.921875 2901.949219 1008.699219 2854.828125 950.78125 L 2766.128906 1052 C 2785.730469 1075.101562 2804.558594 1098.308594 2822.609375 1121.648438 "/>
    <path fill-rule="nonzero" fill="rgb(75.78125%, 93.75%, 3.529358%)" fill-opacity="1"
          d="M 2996.011719 1151.898438 C 2994.359375 1149.070312 2992.699219 1146.238281 2991.03125 1143.429688 L 2987.71875 1142.761719 L 2996.011719 1151.898438 "/>
    <path fill-rule="nonzero" fill="rgb(96.09375%, 91.40625%, 0.392151%)" fill-opacity="1"
          d="M 2943.089844 1303.800781 C 2952.800781 1321.648438 2961.988281 1339.621094 2970.511719 1357.738281 L 3098.03125 1389 C 3075.390625 1305.941406 3039.710938 1226.839844 2996.011719 1151.898438 L 2987.71875 1142.761719 L 2943.089844 1303.800781 "/>
    <path fill-rule="nonzero" fill="rgb(92.96875%, 87.5%, 0%)" fill-opacity="1"
          d="M 2991.03125 1143.429688 C 2990.421875 1142.390625 2989.78125 1141.378906 2989.160156 1140.351562 L 2987.71875 1142.761719 L 2991.03125 1143.429688 "/>
    <path fill-rule="nonzero" fill="rgb(94.53125%, 78.514099%, 0%)" fill-opacity="1"
          d="M 2989.160156 1140.351562 C 2987.960938 1138.320312 2986.71875 1136.320312 2985.5 1134.300781 L 2987.71875 1142.761719 L 2989.160156 1140.351562 "/>
    <path fill-rule="nonzero" fill="rgb(99.21875%, 57.226562%, 5.488586%)" fill-opacity="1"
          d="M 2768.351562 850.410156 C 2731.839844 810.140625 2695.101562 771.78125 2659.410156 735.378906 L 2624.199219 823.761719 L 2768.351562 850.410156 "/>
    <path fill-rule="nonzero" fill="rgb(97.264099%, 68.943787%, 1.177979%)" fill-opacity="1"
          d="M 2624.199219 823.761719 L 2659.410156 735.378906 C 2601.691406 676.488281 2546.828125 622.699219 2500.609375 574.351562 L 2421.421875 595.628906 L 2624.199219 823.761719 "/>
    <path fill-rule="nonzero" fill="rgb(97.65625%, 57.226562%, 10.594177%)" fill-opacity="1"
          d="M 2421.421875 595.628906 L 2409.238281 689.929688 C 2461.078125 738.320312 2511.910156 786.339844 2560.859375 834.320312 L 2624.199219 823.761719 L 2421.421875 595.628906 "/>
    <path fill-rule="nonzero" fill="rgb(99.21875%, 41.184998%, 35.693359%)" fill-opacity="1"
          d="M 2236.359375 617.21875 C 2224.621094 633.019531 2212.398438 649.308594 2199.808594 666.050781 L 2291.160156 762.410156 C 2316.691406 727.609375 2343.359375 691.789062 2371.410156 654.691406 C 2384.070312 666.460938 2396.679688 678.199219 2409.238281 689.929688 L 2421.421875 595.628906 L 2236.359375 617.21875 "/>
    <path fill-rule="nonzero" fill="rgb(98.046875%, 67.381287%, 5.488586%)" fill-opacity="1"
          d="M 2421.421875 595.628906 L 2500.609375 574.351562 C 2485.058594 558.078125 2470.539062 542.441406 2457.171875 527.410156 L 2421.421875 595.628906 "/>
    <path fill-rule="nonzero" fill="rgb(98.4375%, 57.617188%, 5.488586%)" fill-opacity="1"
          d="M 2332.640625 479.039062 C 2308.328125 518.789062 2274.929688 565.339844 2236.359375 617.21875 L 2421.421875 595.628906 L 2332.640625 479.039062 "/>
    <path fill-rule="nonzero" fill="rgb(100%, 49.414062%, 2.745056%)" fill-opacity="1"
          d="M 2457.171875 527.410156 C 2412.539062 477.230469 2381.160156 433.929688 2371.410156 398 C 2365.53125 420.210938 2351.949219 447.480469 2332.640625 479.039062 L 2421.421875 595.628906 L 2457.171875 527.410156 "/>
</svg>
