<?xml version="1.0" encoding="utf-8"?>
<!-- Generator: Adobe Illustrator 27.5.0, SVG Export Plug-In . SVG Version: 6.00 Build 0)  -->
<svg xmlns:xlink="http://www.w3.org/1999/xlink" version="1.1" xmlns="http://www.w3.org/2000/svg" x="0px" y="0px"
	 viewBox="0 0 1122 1122" style="enable-background:new 0 0 1122 1122;" xml:space="preserve">
<g id="BG">
	<rect style="fill:#FFFFFF;" width="1122" height="1122"/>
</g>
    <g id="Object">
	<g>
		<g>
			<path style="fill:#780B00;" d="M561,807.001c-83.036,0-159.903-41.46-205.619-110.906c-3.037-4.613-1.759-10.814,2.854-13.851
				c4.613-3.037,10.815-1.758,13.851,2.854C414.091,748.906,484.713,787.001,561,787.001c53.821,0,105.956-19.235,146.8-54.163
				c40.403-34.551,67.437-82.289,76.119-134.42c0.908-5.448,6.053-9.123,11.507-8.221c5.448,0.908,9.128,6.06,8.221,11.507
				c-9.454,56.763-38.877,108.732-82.849,146.334C676.334,786.06,619.584,807.001,561,807.001z"/>
		</g>
        <g>
			<path style="fill:#780B00;" d="M343.174,480.012c-1.286,0-2.593-0.25-3.854-0.777c-5.095-2.131-7.498-7.989-5.367-13.084
				c18.493-44.218,49.302-81.861,89.096-108.86c40.779-27.667,88.482-42.292,137.952-42.292c60.848,0,119.252,22.39,164.453,63.045
				c4.106,3.693,4.441,10.016,0.748,14.123c-3.693,4.105-10.015,4.441-14.123,0.748c-41.522-37.347-95.177-57.915-151.078-57.915
				c-45.45,0-89.27,13.432-126.723,38.842c-36.571,24.813-64.883,59.401-81.873,100.027
				C350.8,477.703,347.085,480.012,343.174,480.012z"/>
		</g>
        <g>
			<g>
				<path style="fill:#AE4536;" d="M421.945,507.486c-2.383-3.166-5.663-5.852-9.821-8.079c-4.165-2.226-9.048-4.005-14.65-5.339
					c-5.602-1.333-11.635-2.183-18.093-2.55c-6.451-0.361-13.187-0.247-20.187,0.352c-7.001,0.591-13.973,1.688-20.909,3.29
					c-5.955,1.375-11.754,3.122-17.391,5.224c-5.644,2.112-10.991,4.604-16.042,7.475c-5.051,2.872-9.704,6.116-13.953,9.724
					c-4.248,3.623-7.913,7.657-10.987,12.122c-3.074,4.458-5.457,9.3-7.147,14.527c-1.684,5.218-2.509,10.87-2.47,16.931
					c0.04,6.253,1.412,9.067,4.109,8.445c1.97-0.455,4.502-2.873,7.609-7.266c3.107-4.393,6.629-10.724,10.572-18.985
					c1.946-3.124,4.8-6.185,8.561-9.168c3.761-2.99,8.079-5.709,12.947-8.178c4.875-2.463,10.129-4.653,15.773-6.581
					c4.109-1.445,9.877-3.033,17.305-4.748c4.603-1.063,9.144-1.903,13.629-2.538c4.485-0.627,8.754-0.996,12.808-1.091
					c4.06-0.096,7.81,0.079,11.254,0.533c3.444,0.446,6.444,1.203,9.005,2.261c2.554,1.06,4.549,2.465,5.972,4.219
					c1.429,1.752,2.151,3.876,2.167,6.354c0.025,3.798-0.864,7.559-2.647,11.302c-1.796,3.746-4.353,7.243-7.677,10.501
					c-3.331,3.26-7.373,6.163-12.12,8.724c-4.747,2.561-10.066,4.518-15.957,5.878c-2.518,0.581-4.865,1.011-7.047,1.299
					c-2.182,0.287-4.593,0.732-7.226,1.34c-1.97,0.455-3.518,0.972-4.651,1.546c-1.133,0.566-1.991,1.228-2.567,1.986
					c-0.582,0.751-0.941,1.627-1.088,2.622c-0.147,0.995-0.216,2.14-0.208,3.443c0.018,2.759,0.708,4.85,2.064,6.266
					c1.363,1.415,3.138,2.455,5.326,3.111c2.182,0.665,4.674,1.051,7.472,1.158c2.797,0.107,5.659,0.223,8.577,0.342
					c2.925,0.117,5.781,0.339,8.58,0.678c2.799,0.331,5.294,1.076,7.485,2.212c2.191,1.144,3.964,2.776,5.331,4.903
					c1.367,2.119,2.063,5.017,2.087,8.688c0.044,6.829-1.067,12.707-3.341,17.636c-2.28,4.931-5.31,9.242-9.092,12.934
					c-3.788,3.693-8.136,6.755-13.037,9.184c-4.901,2.429-9.959,4.245-15.18,5.451c-4.297,0.992-8.597,1.544-12.894,1.647
					c-4.303,0.113-8.333-0.038-12.083-0.437c-0.493-0.271-0.867-0.769-1.114-1.505c-0.254-0.726-0.457-1.552-0.616-2.468
					s-0.242-1.81-0.247-2.698c-0.006-0.888-0.01-1.583-0.013-2.087c-0.02-3.143,0.003-6.431,0.07-9.866
					c0.074-3.445,0.192-6.907,0.348-10.403c0.163-3.497,0.337-7.069,0.531-10.725c0.193-3.664,0.434-7.003,0.721-10.016
					c0.457-5.327,1.086-10.813,1.88-16.458c0.787-5.651,1.695-10.45,2.717-14.393c1.022-3.944,2.512-8.524,4.477-13.758
					c1.958-5.225,4.34-10.115,7.14-14.653c-3.036-4.4-6.801-6.086-11.277-5.052c-3.564,0.823-7.513,3.256-11.848,7.308
					c-4.925,8.609-8.714,17.171-11.359,25.686c-2.652,8.524-4.741,18.304-6.266,29.355c-1.531,11.052-2.52,22.091-2.966,33.117
					c-0.452,11.027-0.645,21.739-0.578,32.142c0.013,2.055,0.679,3.327,2.004,3.822c1.325,0.503,2.853,0.751,4.57,0.755
					c3.878,0.418,7.999,0.692,12.361,0.83c4.368,0.137,8.806,0.097,13.325-0.113c4.513-0.209,8.986-0.585,13.408-1.118
					c4.422-0.54,8.625-1.262,12.616-2.184c6.325-1.46,12.122-3.487,17.392-6.073c5.264-2.593,9.995-5.559,14.188-8.905
					c4.186-3.345,7.834-6.974,10.944-10.895c3.11-3.921,5.695-7.954,7.763-12.091c2.061-4.128,3.599-8.294,4.619-12.502
					c1.02-4.2,1.518-8.214,1.493-12.052c-0.031-4.87-0.834-9.481-2.394-13.846c-1.567-4.355-3.895-7.87-6.983-10.552
					c-3.095-2.673-6.918-4.481-11.471-5.424c-4.559-0.95-9.87-0.716-15.946,0.686c9.575-2.395,17.772-5.601,24.604-9.596
					c6.825-4.002,12.422-8.385,16.785-13.156c4.362-4.763,7.561-9.714,9.59-14.843c2.023-5.128,3.019-10.082,2.988-14.864
					C425.539,514.232,424.335,510.642,421.945,507.486z"/>
			</g>
            <g>
				<path style="fill:#AE4536;" d="M445.752,524.765c2.599,1.995,6.592,2.37,11.999,1.122c3.124-0.721,5.811-1.822,8.043-3.314
					c2.232-1.484,4.085-3.177,5.548-5.085c1.463-1.899,2.522-3.922,3.185-6.085c0.663-2.155,0.988-4.288,0.974-6.415
					c-0.015-2.311-0.442-4.214-1.282-5.71c-0.84-1.496-1.971-2.596-3.386-3.302c-1.422-0.705-3.085-1.09-4.988-1.147
					c-1.903-0.065-3.932,0.155-6.081,0.651c-3.437,0.793-6.302,1.999-8.596,3.626c-2.295,1.627-4.128,3.396-5.502,5.306
					c-1.367,1.909-2.357,3.843-2.957,5.8c-0.6,1.956-0.896,3.65-0.887,5.082C441.849,519.612,443.159,522.761,445.752,524.765z"/>
			</g>
            <g>
				<path style="fill:#AE4536;" d="M839.751,497.892c-2.376,2.855-5.28,5.96-8.7,9.328c-3.42,3.368-7.058,6.587-10.907,9.654
					c-3.856,3.076-7.816,5.808-11.887,8.206c-4.077,2.391-7.949,4.013-11.634,4.864c-1.173,0.271-2.264,0.403-3.286,0.398
					c-1.015-0.014-1.987-0.206-2.916-0.6c-0.928-0.394-1.846-1.031-2.745-1.913c-0.9-0.881-1.814-2.04-2.749-3.458
					c5.34-2.69,10.293-5.86,14.861-9.525c4.567-3.657,8.495-7.535,11.795-11.636c3.3-4.094,6.182-8.755,8.645-13.992
					c2.463-5.237,3.679-9.73,3.654-13.48c-0.023-3.526-0.655-6.568-1.904-9.13c-1.249-2.555-2.967-4.592-5.16-6.096
					c-2.2-1.502-4.773-2.478-7.732-2.908c-2.953-0.431-6.15-0.254-9.593,0.541c-4.214,0.973-8.041,2.609-11.481,4.901
					c-3.44,2.292-6.538,5.025-9.301,8.209c-2.757,3.175-5.167,6.662-7.224,10.477c-2.05,3.805-3.756,7.706-5.103,11.685
					s-2.652,8.492-3.904,13.522c-1.251,5.03-1.862,9.255-1.84,12.677c0.016,2.522,0.199,4.949,0.547,7.283
					c0.187,1.253,0.422,2.48,0.705,3.68c-0.283-1.2-0.518-2.426-0.705-3.68c-0.732,0.676-1.459,1.337-2.179,1.983
					c-1.689,1.519-3.441,3.029-5.257,4.545c-1.816,1.516-3.589,2.895-5.311,4.133c-1.722,1.238-3.35,2.287-4.89,3.147
					c-1.533,0.85-2.896,1.413-4.095,1.69c-0.491,0.113-1.016-0.126-1.575-0.709c-0.559-0.591-1.088-1.438-1.587-2.541
					c-0.505-1.109-0.928-2.38-1.276-3.838c-0.348-1.449-0.524-2.986-0.534-4.609l-0.009-1.311c0.17-1.289,0.411-2.625,0.715-4.009
					c0.298-1.382,0.596-2.684,0.894-3.914c0.305-1.223,0.617-2.377,0.948-3.454c0.338-1.071,0.651-1.96,0.96-2.656
					c2.795-6.267,5.85-12.738,9.159-19.388c3.316-6.659,6.612-13.402,9.888-20.237c3.282-6.836,6.431-13.689,9.458-20.562
					c3.02-6.864,5.678-13.635,7.965-20.306c2.294-6.664,4.104-13.192,5.435-19.577c1.332-6.385,1.982-12.502,1.944-18.355
					c-0.015-2.359-0.247-4.62-0.689-6.792c-0.448-2.171-1.201-4.039-2.271-5.586c-1.07-1.555-2.533-2.659-4.389-3.327
					c-1.862-0.667-4.212-0.669-7.049-0.014c-3.908,0.902-7.746,2.917-11.512,6.045c-3.766,3.128-7.374,7.076-10.823,11.82
					c-3.443,4.759-6.728,10.154-9.856,16.202c-3.128,6.048-6.024,12.442-8.675,19.18c-2.664,6.741-5.295,15.485-7.914,26.236
					c-2.612,10.749-3.859,15.853-3.925,16.121c-0.042,0.264-0.847,5.273-2.554,15.821c-1.707,10.556-2.534,18.867-2.495,24.937
					c0.023,3.612,0.201,7.105,0.534,10.478c-1.635,2.289-3.441,4.688-5.419,7.195c-3.236,4.095-6.634,7.946-10.205,11.557
					c-3.571,3.611-7.133,6.748-10.686,9.394c-3.546,2.652-6.792,4.315-9.737,4.995c-2.997,0.692-5.443,0.592-7.351-0.305
					c-1.902-0.89-3.456-2.205-4.661-3.945c-1.205-1.732-2.01-3.764-2.421-6.088c-0.417-2.322-0.63-4.595-0.644-6.826
					c-0.01-1.487,0.042-3.341,0.149-5.568c0.107-2.227,0.411-4.603,0.918-7.139c0.501-2.534,1.355-5.718,2.556-9.559
					c1.195-3.847,2.414-6.884,3.657-9.125c1.237-2.24,2.744-4.165,4.509-5.782c1.765-1.617,3.897-2.717,6.402-3.296
					c1.039-0.24,1.712,0.101,2.024,1.022c0.312,0.921,0.474,2.125,0.483,3.612c0.075,1.712,0.05,2.839-0.068,3.363
					c-0.895,3.802-1.429,6.216-1.607,7.25c-0.536,1.982-0.057,4.009,1.45,6.08c0.915,1.342,2.922,1.648,6.027,0.931
					c2.059-0.475,3.899-1.388,5.518-2.755c1.619-1.367,3.284-3.625,4.994-6.783c1.71-3.15,2.855-5.816,3.441-8.002
					c0.586-2.177,0.872-4.318,0.859-6.429c-0.02-3.031-0.676-5.714-1.968-8.05c-1.292-2.336-3.066-4.209-5.329-5.608
					c-2.269-1.39-4.989-2.268-8.164-2.624c-3.169-0.349-6.622-0.097-10.345,0.763c-4.132,0.954-7.92,2.589-11.366,4.906
					c-3.446,2.309-6.563,5.079-9.358,8.295c-2.789,3.214-5.237,6.775-7.344,10.665c-2.108,3.898-3.87,7.885-5.299,11.962
					c-1.423,4.084-2.74,8.777-3.938,14.074c-1.204,5.299-1.795,9.744-1.772,13.334c0.009,1.37,0.074,2.712,0.193,4.028
					c0.319,3.5,1.028,6.811,2.125,9.94c-1.097-3.129-1.806-6.44-2.125-9.94c-1.571,2.469-3.066,4.732-4.484,6.789
					c-3.233,4.678-6.157,8.621-8.78,11.829c-2.623,3.2-5.007,5.833-7.152,7.873c-2.145,2.041-4.151,3.809-6.006,5.287
					c1.545-10.927,3.069-21.161,4.565-30.716c0.664-4.045,1.523-9.385,2.585-16.028c1.055-6.642,1.884-11.806,2.473-15.49
					c0.589-3.676,1.117-6.961,1.584-9.847c0.46-2.893,0.828-5.188,1.105-6.91c0.18-0.778,0.272-1.456,0.268-2.016
					c-0.012-1.791-0.67-2.961-1.964-3.503c-1.3-0.533-2.896-0.589-4.803-0.148c-1.6,0.37-3.288,1.039-5.07,2.011
					c-1.781,0.964-3.491,2.216-5.148,3.743c-1.65,1.526-3.089,3.243-4.309,5.135c-1.277,1.969-2.126,4.022-2.546,6.169
					l-7.153,36.422c-0.229,2.055-0.749,4.673-1.558,7.855c-0.809,3.182-1.881,6.328-3.214,9.447s-2.912,5.886-4.742,8.31
					c-1.83,2.416-3.876,3.89-6.146,4.414c-1.415,0.327-2.584,0.236-3.507-0.271c-0.929-0.506-1.668-1.273-2.231-2.304
					c-0.556-1.033-0.953-2.254-1.173-3.677c-0.226-1.421-0.344-2.916-0.354-4.475c-0.02-3.006,0.322-6.505,1.03-10.504
					c0.702-4.006,1.657-9.416,2.858-16.244c1.201-6.828,2.155-12.293,2.876-16.392c0.721-4.09,1.617-7.693,2.682-10.789
					c0.351-1.01,0.607-1.942,0.748-2.776c0.148-0.843,0.219-1.604,0.215-2.284c-0.015-2.295-0.797-3.804-2.334-4.53
					c-1.544-0.733-3.39-0.851-5.532-0.356c-2.518,0.581-5.089,1.904-7.719,3.968c-2.63,2.065-4.637,4.65-6.029,7.758
					c-1.881,4.342-3.539,8.585-4.988,12.731c-1.455,4.148-2.69,9.646-3.731,16.485c-1.035,6.846-1.904,12.588-2.615,17.245
					c-0.056,0.372-0.11,0.746-0.161,1.122c-0.938,1.248-1.923,2.526-2.955,3.833c-3.236,4.095-6.634,7.946-10.206,11.557
					c-3.578,3.613-7.133,6.748-10.686,9.394c-3.546,2.652-6.791,4.315-9.737,4.995c-2.997,0.692-5.449,0.593-7.351-0.305
					c-1.902-0.89-3.456-2.205-4.661-3.945c-1.205-1.732-2.01-3.764-2.421-6.088c-0.417-2.322-0.63-4.595-0.644-6.826
					c-0.01-1.487,0.042-3.341,0.149-5.568c0.107-2.227,0.411-4.603,0.918-7.139c0.501-2.534,1.355-5.718,2.556-9.559
					c1.195-3.847,2.414-6.884,3.657-9.125c1.237-2.24,2.744-4.165,4.509-5.782c1.765-1.617,3.896-2.718,6.402-3.296
					c1.039-0.24,1.712,0.101,2.024,1.022c0.312,0.921,0.474,2.125,0.483,3.612c0.075,1.712,0.05,2.839-0.068,3.363
					c-0.895,3.802-1.429,6.216-1.607,7.25c-0.536,1.982-0.057,4.009,1.45,6.08c0.915,1.342,2.922,1.648,6.027,0.931
					c2.06-0.475,3.899-1.389,5.518-2.755c1.619-1.367,3.284-3.625,4.994-6.783c1.71-3.15,2.855-5.816,3.441-8.002
					c0.586-2.177,0.872-4.318,0.859-6.429c-0.02-3.031-0.675-5.714-1.968-8.05c-1.292-2.336-3.066-4.209-5.329-5.609
					c-2.269-1.39-4.989-2.268-8.164-2.624c-3.176-0.348-6.622-0.097-10.345,0.763c-4.131,0.954-7.92,2.589-11.366,4.906
					c-3.446,2.309-6.563,5.079-9.358,8.294c-2.789,3.215-5.237,6.775-7.344,10.665c-2.108,3.898-3.87,7.884-5.299,11.962
					c-1.423,4.084-2.74,8.777-3.938,14.075c-1.204,5.299-1.795,9.744-1.772,13.334c0.018,2.783,0.266,5.453,0.74,8.014
					c0.064,0.342,0.137,0.68,0.208,1.018c-0.072-0.338-0.145-0.676-0.208-1.018c-1.741,1.906-3.509,3.784-5.307,5.637
					c-2.746,2.836-5.463,5.338-8.156,7.505c-2.693,2.176-5.137,3.516-7.349,4.027c-1.906,0.44-3.167-0.094-3.79-1.591
					c-0.622-1.498-0.949-3.641-0.967-6.423c-0.018-2.847,0.408-6.108,1.265-9.798c0.864-3.683,1.568-7.353,2.125-11.013
					c0.557-3.66,1.614-8.172,3.163-13.543c1.549-5.363,2.715-9.724,3.504-13.093c0.783-3.368,1.485-6.365,2.1-8.997
					c0.609-2.631,0.915-4.632,0.906-5.991c-0.01-1.607-0.471-2.79-1.383-3.541c-0.912-0.751-2.636-0.833-5.167-0.249
					c-1.383,0.319-2.938,0.854-4.651,1.594c-1.719,0.741-3.374,1.652-4.969,2.741c-1.589,1.088-3.018,2.346-4.273,3.765
					c-1.382,1.568-2.221,3.172-2.51,4.808c-0.534,2.358-1.937,7.503-4.223,15.43c-2.447,9.654-4.086,15.895-4.904,18.734
					c-0.495,1.443-1.598,7.744-3.294,18.906c-0.827,5.404-1.225,10.053-1.2,13.947c0.018,2.791,0.321,5.275,0.923,7.459
					c0.595,2.185,1.577,3.928,2.939,5.232c1.356,1.297,3.13,2.144,5.316,2.536c2.186,0.392,4.873,0.22,8.068-0.517
					c3.557-0.821,7.315-2.338,11.266-4.555c3.951-2.21,7.817-4.727,11.61-7.557c3.794-2.83,7.325-5.783,10.593-8.868
					c1.271-1.197,2.461-2.354,3.57-3.471c-0.37-0.527-0.723-1.072-1.058-1.634c0.336,0.562,0.689,1.106,1.058,1.634
					c0.909,1.297,1.92,2.49,3.033,3.581c2.93,2.855,6.544,4.839,10.855,5.95c4.304,1.12,9.303,1.016,14.984-0.296
					c3.245-0.749,6.442-2,9.598-3.745c3.149-1.752,6.182-3.79,9.085-6.101c2.903-2.312,5.69-4.829,8.341-7.547
					c2.658-2.72,5.117-5.458,7.373-8.213c0.903-1.095,1.795-2.209,2.677-3.34c0.335,1.79,0.835,3.434,1.502,4.93
					c1.309,2.957,3.042,5.312,5.205,7.079c2.163,1.759,4.648,2.923,7.448,3.486c2.8,0.563,5.673,0.5,8.619-0.18
					c3.373-0.779,6.854-2.487,10.432-5.123c3.578-2.636,7.018-5.801,10.314-9.509l-1.955,11.687
					c-3.848,4.3-7.155,8.251-9.929,11.862c-2.773,3.611-6.293,8.356-10.559,14.234c-2.133,2.847-4.169,5.944-6.114,9.307
					c-1.951,3.422-3.377,6.025-4.285,7.82c-0.908,1.787-2.49,4.98-4.733,9.589c-4.001,8.227-5.742,15.564-5.209,22.008
					c0.271,3.405,1.119,6.228,2.545,8.47c1.426,2.241,3.243,3.848,5.458,4.826c2.216,0.97,4.658,1.511,7.328,1.599
					c2.669,0.096,5.56-0.211,8.691-0.933c3.857-0.891,7.404-2.334,10.641-4.315c3.244-1.99,6-4.26,8.289-6.799
					c2.282-2.545,4.364-5.46,6.246-8.745c1.882-3.285,3.393-6.509,4.541-9.649c1.142-3.155,2.135-6.547,2.967-10.175
					c0.839-3.637,1.412-6.828,1.732-9.585c0.314-2.755,0.653-5.661,1.01-8.698c0.075-1.251,0.287-3.061,0.623-5.413
					c0.758-8.175,1.437-13.801,2.043-16.88c0.599-3.085,1.734-5.373,3.41-6.881c6.868-6.23,10.911-10.015,12.135-11.346
					c4.028-4.181,6.26-6.482,6.685-6.885c1.345-1.295,3.539-3.708,6.594-7.248c1.735-2.05,3.385-4.126,4.95-6.227v0
					c0.889,1.255,1.874,2.412,2.957,3.473c2.93,2.855,6.544,4.839,10.855,5.95c4.304,1.12,9.303,1.015,14.984-0.296
					c3.245-0.749,6.443-2,9.598-3.745c3.156-1.754,6.182-3.79,9.085-6.102c2.909-2.313,5.69-4.829,8.341-7.547
					c2.658-2.72,5.118-5.458,7.373-8.213c2.865-3.474,5.622-7.131,8.271-10.972c1.02,3.675,2.238,6.963,3.655,9.868
					c2.142,4.391,4.641,7.698,7.503,9.936s5.945,2.976,9.247,2.214c2.149-0.496,4.455-1.309,6.919-2.438
					c2.457-1.128,4.984-2.456,7.566-3.997c2.589-1.543,5.157-3.209,7.706-5.006c2.555-1.799,5.027-3.595,7.423-5.39
					c1.82-1.396,3.646-2.841,5.479-4.334c-0.916-1.044-1.752-2.17-2.509-3.378c0.757,1.208,1.593,2.334,2.509,3.378
					c0.293,0.334,0.594,0.661,0.904,0.979c2.886,2.961,6.488,5.013,10.799,6.163c4.317,1.15,9.335,1.064,15.067-0.259
					c3.685-0.851,7.323-2.123,10.907-3.807c3.584-1.692,7.045-3.637,10.383-5.849c3.338-2.204,6.515-4.579,9.545-7.129
					c3.023-2.556,5.854-5.091,8.481-7.612c6.047-5.865,11.752-12.323,17.115-19.367L839.751,497.892z M586.279,629.26
					c-0.356,3.181-0.658,5.901-0.911,8.17c-0.254,2.261-0.649,4.354-1.185,6.28c-0.966,3.57-1.759,6.436-2.39,8.592
					c-0.631,2.164-1.357,4.373-2.173,6.644c-0.816,2.262-1.583,4.049-2.315,5.363c-0.726,1.313-1.58,2.567-2.555,3.753
					c-0.976,1.186-2.049,2.099-3.213,2.744c-1.164,0.637-2.483,1.126-3.956,1.466c-4.048,0.935-5.081-1.798-3.086-8.208
					c2.415-7.629,5.686-15.319,9.825-23.097c4.138-7.77,8.353-13.7,12.636-17.788C586.859,624.057,586.629,626.088,586.279,629.26z
					 M733.029,491.748c0.271-6.413,1.212-14.006,2.809-22.775c1.597-8.769,2.353-12.938,2.393-13.157
					c0.066-0.242,1.323-4.838,3.974-14.507c2.645-9.66,4.93-16.73,6.855-21.186c1.919-4.463,3.849-8.096,5.779-10.896
					c1.936-2.801,3.745-4.396,5.435-4.786c0.465-0.108,0.744,0.469,0.841,1.728c0.091,1.26,0.146,2.793,0.158,4.6
					c-0.518,5.813-1.773,12.245-3.758,19.294c-1.992,7.058-4.352,14.21-7.077,21.47c-2.731,7.253-5.629,14.361-8.7,21.324
					C738.666,479.819,735.763,486.111,733.029,491.748z M762.884,534.097c-0.145-0.439-0.277-0.885-0.408-1.331
					C762.607,533.212,762.739,533.658,762.884,534.097c0.326,0.988,0.687,1.94,1.085,2.855
					C763.571,536.036,763.21,535.085,762.884,534.097z M782.853,504.846c0.115-1.909,0.667-4.43,1.669-7.569
					c0.995-3.137,1.872-5.782,2.63-7.927c0.759-2.145,1.761-4.13,3.014-5.965c1.252-1.835,2.819-3.453,4.687-4.854
					c1.875-1.41,4.135-2.412,6.787-3.024c1.479-0.341,2.728,0.243,3.76,1.767c1.025,1.525,1.549,3.646,1.567,6.365
					c0.012,1.935-1.049,4.639-3.185,8.103c-2.142,3.466-4.327,6.332-6.566,8.603c-2.239,2.279-4.659,4.279-7.272,6.003
					c-2.607,1.723-5.026,2.842-7.245,3.354C782.691,508.367,782.744,506.753,782.853,504.846z"/>
			</g>
		</g>
        <g>
			<path style="fill:#E6A670;" d="M561,835.622c-2.761,0-5-2.239-5-5c0-2.761,2.239-5,5-5c63.982,0,125.737-23.137,173.889-65.149
				c47.692-41.61,78.936-98.834,87.976-161.13c0.397-2.733,2.938-4.624,5.667-4.23c2.732,0.397,4.626,2.934,4.23,5.667
				c-9.383,64.659-41.807,124.048-91.298,167.229C691.489,811.61,627.399,835.622,561,835.622z"/>
		</g>
        <g>
			<path style="fill:#E6A670;" d="M307.118,475.009c-0.561,0-1.129-0.095-1.687-0.295c-2.6-0.932-3.952-3.794-3.02-6.394
				c18.91-52.756,53.098-97.967,98.868-130.744c46.772-33.495,102.002-51.199,159.721-51.199c2.761,0,5,2.239,5,5
				c0,2.761-2.239,5-5,5c-55.618,0-108.835,17.058-153.898,49.329c-44.109,31.588-77.055,75.154-95.277,125.988
				C311.093,473.737,309.169,475.009,307.118,475.009z"/>
		</g>
        <g>
			<g>
				<path style="fill:#AE4536;" d="M650.45,627.217c-1.244-0.396-2.846-0.65-4.819-0.778c-1.899-0.094-3.249-0.349-4.035-0.775
					c-0.786-0.426-1.183-1.226-1.191-2.39c-0.009-1.356,0.422-2.529,1.299-3.523c0.883-0.995,2.081-1.671,3.606-2.023
					c2.539-0.586,4.867-0.066,6.975,1.554l1.4-4.237c-0.955-0.887-2.181-1.47-3.676-1.749c-1.496-0.279-3.069-0.224-4.727,0.159
					c-1.81,0.418-3.405,1.169-4.779,2.269c-1.374,1.092-2.435,2.402-3.175,3.931c-0.74,1.537-1.108,3.17-1.097,4.917
					c0.016,2.436,0.704,4.135,2.058,5.105c1.354,0.961,3.516,1.503,6.478,1.619c1.906,0.093,3.269,0.336,4.102,0.744
					c0.832,0.399,1.256,1.159,1.263,2.265c0.008,1.305-0.436,2.416-1.326,3.346c-0.89,0.922-2.148,1.579-3.785,1.957
					c-1.479,0.341-2.846,0.399-4.096,0.171c-1.25-0.22-2.455-0.741-3.609-1.557l-1.433,4.245c1.115,0.875,2.459,1.439,4.041,1.682
					c1.582,0.251,3.281,0.159,5.091-0.259c1.923-0.444,3.585-1.186,4.999-2.237c1.408-1.041,2.482-2.313,3.222-3.8
					c0.747-1.488,1.109-3.12,1.097-4.892c-0.01-1.605-0.35-2.867-1.02-3.779C652.641,628.268,651.688,627.614,650.45,627.217z"/>
			</g>
            <g>
				<polygon style="fill:#AE4536;" points="681.099,605.559 681.179,617.941 669.086,620.733 669.006,608.351 664.796,609.323 
					664.987,638.9 669.197,637.928 669.115,625.09 681.207,622.298 681.29,635.136 685.527,634.158 685.336,604.581 				"/>
			</g>
            <g>
				<path style="fill:#AE4536;" d="M713.522,599.531c-1.698-0.832-3.691-0.98-5.992-0.449c-2.294,0.53-4.285,1.597-5.968,3.21
					c-1.682,1.604-2.964,3.657-3.858,6.153c-0.893,2.488-1.327,5.279-1.308,8.354c0.02,3.102,0.495,5.69,1.431,7.756
					c0.93,2.075,2.241,3.539,3.939,4.379c1.698,0.84,3.685,0.998,5.959,0.473c2.301-0.531,4.279-1.604,5.955-3.224
					c1.67-1.618,2.951-3.68,3.838-6.175c0.893-2.488,1.327-5.286,1.307-8.388c-0.02-3.076-0.481-5.66-1.391-7.731
					C716.525,601.811,715.221,600.355,713.522,599.531z M712.785,621.127c-1.208,2.17-2.899,3.501-5.087,4.006
					c-2.187,0.505-3.891-0.043-5.117-1.651c-1.232-1.605-1.852-4.16-1.875-7.678c-0.023-3.517,0.563-6.35,1.771-8.486
					c1.201-2.134,2.893-3.457,5.08-3.962c2.188-0.505,3.892,0.042,5.124,1.631c1.225,1.582,1.852,4.127,1.875,7.62
					C714.579,616.125,713.987,618.96,712.785,621.127z"/>
			</g>
            <g>
				<path style="fill:#AE4536;" d="M745.915,592.901c-1.429-1.211-3.409-1.519-5.948-0.933l-10.237,2.363l0.191,29.577l4.276-0.987
					l-0.08-12.34l5.961-1.376c2.519-0.582,4.483-1.81,5.899-3.686c1.415-1.884,2.111-4.152,2.094-6.813
					C748.054,596.047,747.337,594.114,745.915,592.901z M742.908,603.247c-0.758,0.942-1.875,1.582-3.354,1.924l-5.463,1.261
					l-0.058-8.939l5.463-1.261c1.505-0.347,2.634-0.225,3.388,0.367c0.754,0.584,1.139,1.611,1.149,3.083
					C744.043,601.12,743.665,602.315,742.908,603.247z"/>
			</g>
		</g>
	</g>
</g>
</svg>
