<?xml version="1.0" encoding="utf-8"?>
<!-- Generator: Adobe Illustrator 27.5.0, SVG Export Plug-In . SVG Version: 6.00 Build 0)  -->
<svg xmlns:xlink="http://www.w3.org/1999/xlink"  version="1.1" id="Camada_1" xmlns="http://www.w3.org/2000/svg" x="0px"
	 y="0px"
	 viewBox="0 0 1300 1300" style="enable-background:new 0 0 1300 1300;" xml:space="preserve">
<g>
	<linearGradient id="SVGID_1_" gradientUnits="userSpaceOnUse" x1="621.0699" y1="746.7397" x2="621.0699"
                    y2="231.3697">
		<stop offset="0" style="stop-color:#00ABC5"/>
        <stop offset="0.4388" style="stop-color:#00929E"/>
        <stop offset="1" style="stop-color:#007B8D"/>
	</linearGradient>
    <path style="fill:url(#SVGID_1_);" d="M721.491,746.74c3.78-39.246-12.435-82.245-45.427-119.527
		c-0.768-0.867-1.536-1.734-2.315-2.587c-13.36-14.619-29.486-28.864-50.749-44.829c-11.745-8.819-23.997-17.39-35.846-25.679
		c-8.296-5.804-16.874-11.804-25.177-17.82c-35.315-25.587-74.116-57.709-94.143-101.949
		c-16.631-36.737-18.507-79.629-5.146-117.677c12.584-35.838,38.405-66.579,71.401-85.302c-0.807,5.303-0.92,10.726-0.338,16.223
		l-0.869-0.39l1.847,6.761c0.869,4.317,2.169,8.722,3.864,13.098c6.687,17.252,19.94,35.363,39.391,53.828
		c21.008,19.945,50.292,42.258,76.128,61.944c7.227,5.507,14.052,10.707,20.324,15.573c33.116,25.695,58.005,45.658,76.746,68.62
		c20.456,25.064,31.767,52.259,35.599,85.585c0.025,0.209,0.129,1.004,0.151,1.199c2.528,23.172,1.505,46.901-3.039,70.526
		C775.011,670.505,752.981,713.601,721.491,746.74z"/>
    <g>
		
			<linearGradient id="SVGID_00000067207769688732728540000016199925929702302344_"
                            gradientUnits="userSpaceOnUse" x1="450.598" y1="427.2524" x2="791.5721" y2="427.2524">
			<stop offset="0" style="stop-color:#007B8D"/>
                <stop offset="0.5612" style="stop-color:#00929E"/>
                <stop offset="1" style="stop-color:#00ABC5"/>
		</linearGradient>
        <path style="fill:url(#SVGID_00000067207769688732728540000016199925929702302344_);" d="M723.7,573.052
			c-114.785-110.881-168.185-262.59-182.04-307.18c-1.611-4.156-2.873-8.381-3.727-12.66c-0.026-0.095-0.042-0.157-0.042-0.157
			s0.01,0.005,0.014,0.007c-1.801-9.125-1.74-18.49,0.879-27.949c0,0-120.72,130.624,82.302,357.343c0,0-0.033-0.016-0.061-0.029
			c17.962,13.487,35.147,27.842,50.295,44.418c0.768,0.84,1.524,1.694,2.281,2.548C681.898,603.429,700.421,585.427,723.7,573.052z"
        />

        <linearGradient id="SVGID_00000128478654463785054980000006309340910020304301_" gradientUnits="userSpaceOnUse"
                        x1="617.9699" y1="436.6993" x2="709.5566" y2="383.8217">
			<stop offset="0" style="stop-color:#007B8D"/>
            <stop offset="0.2004" style="stop-color:#008393"/>
            <stop offset="0.4235" style="stop-color:#00929E"/>
            <stop offset="1" style="stop-color:#00AAB5"/>
		</linearGradient>
        <path style="fill:url(#SVGID_00000128478654463785054980000006309340910020304301_);" d="M676.451,395.808
			c-28.589-22.182-69.443-51.899-96.203-77.304c-15.746-14.949-30.99-33.028-38.588-52.631
			c13.855,44.59,67.255,196.299,182.04,307.18c19.802-10.527,43.039-16.988,66.347-20.816
			C781.644,479.141,739.467,444.703,676.451,395.808z"/>

        <linearGradient id="SVGID_00000155128058270090693410000009598355225733860000_" gradientUnits="userSpaceOnUse"
                        x1="479.0335" y1="461.9117" x2="626.3826" y2="376.8397">
			<stop offset="0" style="stop-color:#007B8D"/>
            <stop offset="0.3929" style="stop-color:#00929E"/>
            <stop offset="1" style="stop-color:#6AC9C8"/>
		</linearGradient>
        <path style="fill:url(#SVGID_00000155128058270090693410000009598355225733860000_);" d="M538.783,225.112
			c-36.609,18.611-65.594,51.721-79.2,90.469c-13.606,38.749-11.683,82.711,5.253,120.124
			c19.533,43.148,56.856,75.466,95.21,103.255c20.17,14.615,41.054,28.505,60.978,43.466c0.028,0.013,0.061,0.029,0.061,0.029
			C418.063,355.736,538.783,225.112,538.783,225.112z"/>

        <linearGradient id="SVGID_00000145033185656548900500000013343293441754026139_" gradientUnits="userSpaceOnUse"
                        x1="730.3606" y1="756.082" x2="730.3606" y2="573.0518">
			<stop offset="0" style="stop-color:#B1DED3"/>
            <stop offset="0.4388" style="stop-color:#00B3B5"/>
            <stop offset="1" style="stop-color:#007B8D"/>
		</linearGradient>
        <path style="fill:url(#SVGID_00000145033185656548900500000013343293441754026139_);" d="M716.854,756.082
			c36.276-35.001,60.755-81.667,70.267-131.125c-22.956-15.668-44.062-33.205-63.421-51.906
			c-23.279,12.376-41.802,30.378-50.1,56.341C704.319,664.106,725.357,710.646,716.854,756.082z"/>

        <linearGradient id="SVGID_00000018945804179789232150000017651145174280789656_" gradientUnits="userSpaceOnUse"
                        x1="757.6332" y1="624.9574" x2="757.6332" y2="552.2357">
			<stop offset="0" style="stop-color:#00ABC5"/>
            <stop offset="0.4388" style="stop-color:#00929E"/>
            <stop offset="1" style="stop-color:#007B8D"/>
		</linearGradient>
        <path style="fill:url(#SVGID_00000018945804179789232150000017651145174280789656_);" d="M787.121,624.957
			c4.524-23.521,5.679-47.671,3.079-71.503c-0.045-0.413-0.106-0.808-0.153-1.218c-23.308,3.828-46.545,10.289-66.347,20.816
			C743.059,591.752,764.165,609.289,787.121,624.957z"/>
	</g>
    <g>
		
			<linearGradient id="SVGID_00000115476474900560649380000016100813932222572222_"
                            gradientUnits="userSpaceOnUse" x1="464.4881" y1="543.6576" x2="615.3874" y2="543.6576">
			<stop offset="0" style="stop-color:#FFCB05"/>
                <stop offset="0.6071" style="stop-color:#F37021"/>
                <stop offset="1" style="stop-color:#F04E23"/>
		</linearGradient>
        <path style="fill:url(#SVGID_00000115476474900560649380000016100813932222572222_);" d="M615.387,601.132
			c-46.372-34.206-90.471-55.166-139.224-114.948c-8.621,27.153-12.607,56.274-11.491,84.968
			C498.403,562.569,555.625,558.531,615.387,601.132z"/>

        <linearGradient id="SVGID_00000103975341039723046240000017021505680521111433_" gradientUnits="userSpaceOnUse"
                        x1="464.6719" y1="723.9424" x2="695.426" y2="723.9424">
			<stop offset="0" style="stop-color:#F04E23"/>
            <stop offset="0.3929" style="stop-color:#F37021"/>
            <stop offset="1" style="stop-color:#FBB040"/>
		</linearGradient>
        <path style="fill:url(#SVGID_00000103975341039723046240000017021505680521111433_);" d="M634.918,863.529
			c-0.664,6.458-2.328,12.752-5.398,18.743c25.118-30.665,47.844-64.271,59.03-102.299c11.187-38.028,9.625-81.225-11.397-114.83
			c-5.207-8.323-11.44-16.513-18.29-24.36c-3.617-4.092-7.244-7.974-10.875-11.658c-0.461-0.464-0.915-0.935-1.379-1.395
			c-0.041-0.041-0.083-0.082-0.124-0.123c-9.089-8.999-18.782-17.288-28.378-24.464c-0.908-0.679-1.813-1.343-2.719-2.011
			c-59.763-42.6-116.984-38.563-150.715-29.98c0,0,0,0.001,0,0.002C639.349,714.258,642.51,821.955,634.918,863.529z"/>

        <linearGradient id="SVGID_00000093173670676440724430000003307543331385894304_" gradientUnits="userSpaceOnUse"
                        x1="464.6721" y1="717.3414" x2="637.0781" y2="717.3414">
			<stop offset="0" style="stop-color:#F04E23"/>
            <stop offset="0.3929" style="stop-color:#F37021"/>
            <stop offset="1" style="stop-color:#FFD400"/>
		</linearGradient>
        <path style="fill:url(#SVGID_00000093173670676440724430000003307543331385894304_);" d="M464.672,571.154L464.672,571.154
			c0,0,76.91,66.722,131.552,194.037c0.001,0.003,0.002,0.005,0.003,0.008c14.486,13.959,25.699,31.11,31.278,50.01
			c4.657,15.777,9.036,32.542,7.413,48.321C642.51,821.955,639.349,714.258,464.672,571.154z"/>

        <linearGradient id="SVGID_00000149359606119561469270000014148774918564222626_" gradientUnits="userSpaceOnUse"
                        x1="530.4497" y1="765.1986" x2="530.4497" y2="571.1536">
			<stop offset="0" style="stop-color:#F04E23"/>
            <stop offset="0.3929" style="stop-color:#F37021"/>
            <stop offset="1" style="stop-color:#FBB040"/>
		</linearGradient>
        <path style="fill:url(#SVGID_00000149359606119561469270000014148774918564222626_);" d="M464.672,571.154
			c1.94,49.863,19.302,98.434,54.619,133.126c16.538,16.245,52.429,39.905,70.174,54.823c2.325,1.955,4.579,3.991,6.763,6.096
			c-0.001-0.003-0.002-0.005-0.003-0.008C541.582,637.875,464.673,571.154,464.672,571.154z"/>
	</g>
    <g>
		<path style="fill:#00386C;" d="M338.484,921.194c-2.365,0-4.393,2.027-4.393,4.393v54.068c0,2.365,2.028,4.393,4.393,4.393h67.361
			v9.125h-67.361c-7.547,0-13.517-5.97-13.517-13.517v-54.068c0-7.547,5.97-13.517,13.517-13.517h67.361v9.125H338.484z"/>
        <path style="fill:#00386C;" d="M484.915,912.069c7.547,0,13.517,5.97,13.517,13.517v54.068c0,7.547-5.97,13.517-13.517,13.517
			h-54.068c-7.547,0-13.517-5.97-13.517-13.517v-54.068c0-7.547,5.971-13.517,13.517-13.517H484.915z M484.915,984.047
			c2.366,0,4.393-2.027,4.393-4.393v-54.068c0-2.365-2.027-4.393-4.393-4.393h-54.068c-2.365,0-4.393,2.027-4.393,4.393v54.068
			c0,2.365,2.027,4.393,4.393,4.393H484.915z"/>
        <path style="fill:#00386C;" d="M590.684,912.069h12.503v81.103h-9.124v-70.739l-37.059,44.043l-37.06-44.043v70.739h-9.124
			v-81.103h12.504l33.68,40.1L590.684,912.069z"/>
        <path style="fill:#00386C;" d="M682.936,912.182c7.547,0,13.517,6.081,13.517,13.517v23.768c0,7.434-5.97,13.516-13.517,13.516
			h-54.069c-1.014,0-2.703-0.225-4.393-0.45v30.639h-9.124v-80.99H682.936z M687.328,925.7c0-2.367-2.027-4.394-4.392-4.394h-54.069
			c-2.365,0-4.393,2.027-4.393,4.394v23.768c0,2.365,2.028,4.279,4.393,4.279h54.069c2.365,0,4.392-1.914,4.392-4.279V925.7z"/>
        <path style="fill:#00386C;" d="M773.384,912.069c7.547,0,13.517,5.97,13.517,13.517v67.586h-9.125v-29.625h-62.855v29.625h-9.123
			v-67.586c0-7.547,5.97-13.517,13.517-13.517H773.384z M777.776,954.423v-28.836c0-2.365-2.027-4.393-4.392-4.393h-54.069
			c-2.365,0-4.394,2.027-4.394,4.393v28.836H777.776z"/>
        <path style="fill:#00386C;" d="M871.717,912.069h9.125v81.103h-12.503l-59.475-70.739v70.739h-9.125v-81.103h12.503l59.475,70.739
			V912.069z"/>
        <path style="fill:#00386C;" d="M972.755,912.069l-37.285,50.577v30.526h-9.125v-30.526
			c-12.051-16.559-25.006-34.018-37.284-50.577h10.476l31.427,39.65c9.799-12.616,21.178-27.034,31.09-39.65H972.755z"/>
	</g>
    <g>
		<path style="fill:#FBB040;" d="M366.517,1023.838v25.08c0,4.972-4.007,8.978-8.978,8.978h-34.874v-57.133h6.084v14.097h28.79
			C362.51,1014.86,366.517,1018.867,366.517,1023.838z M360.433,1023.838c0-1.558-1.336-2.894-2.894-2.894h-25.821
			c-1.633,0-2.968,1.336-2.968,2.894v25.08c0,1.558,1.336,2.894,2.968,2.894h25.821c1.558,0,2.894-1.336,2.894-2.894V1023.838z"/>
        <path style="fill:#FBB040;" d="M415.928,1014.86v34.058c0,4.972-4.007,8.978-9.052,8.978h-25.821
			c-4.971,0-8.977-4.006-8.977-8.978v-34.058h6.084v34.058c0,1.558,1.336,2.894,2.894,2.894h25.821c1.632,0,2.968-1.336,2.968-2.894
			v-34.058H415.928z"/>
        <path style="fill:#FBB040;" d="M466.008,1024.433h-6.159v-0.595c0-1.558-1.336-2.894-2.893-2.894h-25.822
			c-1.558,0-2.893,1.336-2.893,2.894v6.604c0,1.558,1.335,2.894,2.893,2.894h25.822c5.045,0,9.052,4.008,9.052,8.978v6.604
			c0,4.972-4.007,8.978-9.052,8.978h-25.822c-4.971,0-8.978-4.006-8.978-8.978v-0.593h6.085v0.593c0,1.558,1.335,2.894,2.893,2.894
			h25.822c1.558,0,2.893-1.336,2.893-2.894v-6.604c0-1.558-1.336-2.894-2.893-2.894h-25.822c-4.971,0-8.978-4.006-8.978-8.978
			v-6.604c0-4.971,4.007-8.978,8.978-8.978h25.822c5.045,0,9.052,4.008,9.052,8.978V1024.433z"/>
        <path style="fill:#FBB040;"
              d="M479.433,1000.763v6.083h-6.085v-6.083H479.433z M473.349,1014.86h6.085v43.036h-6.085V1014.86z"/>
        <path style="fill:#FBB040;" d="M531.668,1023.838v34.058h-6.085v-34.058c0-1.558-1.336-2.894-2.893-2.894h-25.821
			c-1.633,0-2.968,1.336-2.968,2.894v34.058h-6.084v-43.036h34.874C527.661,1014.86,531.668,1018.867,531.668,1023.838z"/>
        <path style="fill:#FBB040;" d="M583.083,1023.838v15.582h-37.767v9.498c0,1.558,1.335,2.894,2.893,2.894h34.874v6.085h-34.874
			c-4.971,0-8.978-4.006-8.978-8.978v-25.08c0-4.971,4.007-8.978,8.978-8.978h25.822
			C579.076,1014.86,583.083,1018.867,583.083,1023.838z M576.924,1033.335v-9.497c0-1.558-1.262-2.894-2.893-2.894h-25.822
			c-1.558,0-2.893,1.336-2.893,2.894v9.497H576.924z"/>
        <path style="fill:#FBB040;" d="M634.2,1024.433h-6.159v-0.595c0-1.558-1.336-2.894-2.894-2.894h-25.821
			c-1.559,0-2.894,1.336-2.894,2.894v6.604c0,1.558,1.335,2.894,2.894,2.894h25.821c5.045,0,9.052,4.008,9.052,8.978v6.604
			c0,4.972-4.007,8.978-9.052,8.978h-25.821c-4.971,0-8.978-4.006-8.978-8.978v-0.593h6.085v0.593c0,1.558,1.335,2.894,2.894,2.894
			h25.821c1.558,0,2.894-1.336,2.894-2.894v-6.604c0-1.558-1.336-2.894-2.894-2.894h-25.821c-4.971,0-8.978-4.006-8.978-8.978
			v-6.604c0-4.971,4.007-8.978,8.978-8.978h25.821c5.045,0,9.052,4.008,9.052,8.978V1024.433z"/>
        <path style="fill:#FBB040;" d="M685.096,1024.433h-6.158v-0.595c0-1.558-1.336-2.894-2.894-2.894h-25.821
			c-1.559,0-2.894,1.336-2.894,2.894v6.604c0,1.558,1.334,2.894,2.894,2.894h25.821c5.046,0,9.052,4.008,9.052,8.978v6.604
			c0,4.972-4.006,8.978-9.052,8.978h-25.821c-4.972,0-8.978-4.006-8.978-8.978v-0.593h6.085v0.593c0,1.558,1.334,2.894,2.894,2.894
			h25.821c1.558,0,2.894-1.336,2.894-2.894v-6.604c0-1.558-1.336-2.894-2.894-2.894h-25.821c-4.972,0-8.978-4.006-8.978-8.978
			v-6.604c0-4.971,4.006-8.978,8.978-8.978h25.821c5.046,0,9.052,4.008,9.052,8.978V1024.433z"/>
        <path style="fill:#FBB040;" d="M718.773,1020.945v27.973c0,1.558,1.336,2.894,2.894,2.894h15.73v6.085h-15.73
			c-5.044,0-8.978-4.006-8.978-8.978v-48.154h6.085v14.097h18.624v6.085H718.773z"/>
        <path style="fill:#FBB040;" d="M786.884,1023.838v34.058h-34.873c-4.971,0-8.978-4.006-8.978-8.978v-15.582h37.693v-9.497
			c0-1.558-1.26-2.894-2.894-2.894h-34.799v-6.085h34.799C782.878,1014.86,786.884,1018.867,786.884,1023.838z M780.726,1039.42
			h-31.608v9.498c0,1.558,1.336,2.894,2.894,2.894h28.714V1039.42z"/>
        <path style="fill:#FBB040;" d="M828.506,1074.888h-26.861v-6.159h26.861c1.558,0,2.893-1.336,2.893-2.894v-7.94h-28.716
			c-4.971,0-8.978-4.006-8.978-8.978v-25.08c0-4.971,4.008-8.978,8.978-8.978h25.822c5.044,0,8.978,4.008,8.978,8.978v41.997
			C837.484,1070.88,833.55,1074.888,828.506,1074.888z M828.506,1051.811c1.558,0,2.893-1.336,2.893-2.894v-25.08
			c0-1.558-1.336-2.894-2.893-2.894h-25.822c-1.558,0-2.894,1.336-2.894,2.894v25.08c0,1.558,1.336,2.894,2.894,2.894H828.506z"/>
        <path style="fill:#FBB040;" d="M851.279,1000.763v48.154c0,1.558,1.336,2.894,2.894,2.894h7.271v6.085h-7.271
			c-4.971,0-8.978-4.006-8.978-8.978v-48.154H851.279z"/>
        <path style="fill:#FBB040;"
              d="M873.685,1000.763v6.083h-6.084v-6.083H873.685z M867.601,1014.86h6.084v43.036h-6.084V1014.86z"/>
        <path style="fill:#FBB040;" d="M925.92,1023.838v34.058h-6.085v-34.058c0-1.558-1.336-2.894-2.894-2.894h-25.821
			c-1.633,0-2.969,1.336-2.969,2.894v34.058h-6.085v-43.036h34.874C921.912,1014.86,925.92,1018.867,925.92,1023.838z"/>
        <path style="fill:#FBB040;" d="M977.334,1023.838v15.582h-37.766v9.498c0,1.558,1.336,2.894,2.894,2.894h34.873v6.085h-34.873
			c-4.972,0-8.978-4.006-8.978-8.978v-25.08c0-4.971,4.006-8.978,8.978-8.978h25.821
			C973.328,1014.86,977.334,1018.867,977.334,1023.838z M971.176,1033.335v-9.497c0-1.558-1.26-2.894-2.894-2.894h-25.821
			c-1.558,0-2.894,1.336-2.894,2.894v9.497H971.176z"/>
	</g>
</g>
</svg>
