<?xml version="1.0" encoding="UTF-8"?>
<svg xmlns:xlink="http://www.w3.org/1999/xlink" xmlns="http://www.w3.org/2000/svg" width="3000" height="3000"
     viewBox="0 0 3000 3000">

    <path fill-rule="nonzero" fill="rgb(0%, 0%, 0%)" fill-opacity="1"
          d="M 1815.96875 1214.429688 L 1817.539062 1218.558594 Z M 1817.53125 1218.558594 Z M 1817.53125 1218.558594 L 1817.539062 1218.558594 Z M 1817.53125 1218.558594 Z M 1462.839844 1131.839844 L 1467.988281 1264.75 Z M 1467.988281 1264.75 L 1472.171875 1372.519531 L 1467.988281 1264.75 L 1467.980469 1264.75 C 1467.988281 1264.75 1467.988281 1264.75 1467.988281 1264.75 Z M 1488.21875 1372.699219 C 1485.628906 1372.960938 1483.121094 1373.089844 1480.710938 1373.089844 C 1483.121094 1373.089844 1485.628906 1372.960938 1488.21875 1372.699219 Z M 1447.210938 1406.539062 L 1447.851562 1413.648438 L 1447.929688 1414.5 Z M 1811.75 1437.851562 Z M 1880.921875 419.160156 C 1880.859375 419.171875 1880.808594 419.171875 1880.75 419.191406 L 1880.410156 419.230469 C 1827.140625 485.949219 1796.421875 540.019531 1788.25 581.429688 C 1780.390625 622.148438 1777.25 651 1778.828125 667.949219 C 1777.890625 689.441406 1783.871094 734.121094 1796.761719 802.019531 C 1798.25 817.351562 1798.609375 829.761719 1797.871094 839.261719 C 1797.988281 868.410156 1787.179688 907.03125 1765.449219 955.109375 C 1755.519531 972.539062 1746.109375 986.621094 1737.210938 997.359375 C 1683.390625 1056.269531 1650.5 1095.160156 1638.53125 1114.03125 C 1628.640625 1124.828125 1616.421875 1151.480469 1601.878906 1193.980469 C 1601.589844 1190 1601.269531 1185.808594 1600.921875 1181.390625 C 1601.109375 1172.359375 1602.628906 1162.859375 1605.460938 1152.910156 C 1608.230469 1144.128906 1610.949219 1136.941406 1613.640625 1131.351562 C 1636.289062 1088.410156 1648.378906 1064.390625 1649.910156 1059.289062 C 1657.269531 1038.121094 1661.300781 1022.519531 1662 1012.480469 C 1664.339844 992.070312 1661.101562 969.429688 1652.28125 944.558594 C 1649.570312 937.890625 1646.378906 932.058594 1642.730469 927.058594 C 1641.488281 923.519531 1634.949219 917.898438 1623.121094 910.210938 L 1622.871094 910.53125 C 1622.398438 911.03125 1622.191406 911.839844 1622.238281 912.960938 C 1625.75 925.710938 1627.851562 939.460938 1628.550781 954.191406 C 1629.078125 963.179688 1627.96875 975.378906 1625.230469 990.800781 C 1622.191406 1004.46875 1618.289062 1017.28125 1613.519531 1029.230469 C 1604.589844 1049.558594 1597.289062 1063.160156 1591.609375 1070.03125 C 1579.621094 1087 1568.789062 1095.480469 1559.128906 1095.5 C 1557.589844 1095.5 1556.089844 1095.289062 1554.609375 1094.859375 C 1554.160156 1094.421875 1553.851562 1093.308594 1553.691406 1091.539062 C 1554.140625 1070.441406 1554.050781 1055.828125 1553.429688 1047.699219 C 1553.019531 1039.449219 1552.140625 1031.929688 1550.820312 1025.140625 C 1547.378906 1012.039062 1544.660156 1004.640625 1542.660156 1002.929688 C 1540.191406 999.289062 1537.460938 997.46875 1534.460938 997.46875 C 1527.421875 1023.628906 1518.789062 1047.011719 1508.578125 1067.609375 C 1503.46875 1077.910156 1497.960938 1087.519531 1492.070312 1096.429688 C 1485.691406 1105.128906 1480.28125 1112.25 1475.851562 1117.789062 C 1471.398438 1112.261719 1465.980469 1105.148438 1459.578125 1096.46875 C 1453.660156 1087.570312 1448.128906 1077.980469 1443 1067.691406 C 1432.730469 1047.109375 1424.050781 1023.75 1416.941406 997.609375 C 1413.941406 997.621094 1411.21875 999.441406 1408.761719 1003.089844 C 1406.769531 1004.808594 1404.058594 1012.21875 1400.648438 1025.328125 C 1399.339844 1032.121094 1398.488281 1039.640625 1398.101562 1047.890625 C 1397.5 1056.019531 1397.441406 1070.628906 1397.941406 1091.71875 C 1397.789062 1093.5 1397.480469 1094.609375 1397.03125 1095.058594 C 1395.550781 1095.480469 1394.050781 1095.699219 1392.511719 1095.699219 C 1382.851562 1095.710938 1372.011719 1087.25 1359.980469 1070.308594 C 1354.28125 1063.449219 1346.941406 1049.871094 1337.960938 1029.570312 C 1333.160156 1017.628906 1329.230469 1004.828125 1326.160156 991.160156 C 1323.378906 975.75 1322.238281 963.558594 1322.75 954.570312 C 1323.421875 939.828125 1325.480469 926.078125 1328.960938 913.320312 C 1329 912.199219 1328.789062 911.390625 1328.320312 910.878906 L 1328.070312 910.570312 C 1316.261719 918.289062 1309.730469 923.921875 1308.5 927.460938 C 1304.859375 932.46875 1301.691406 938.308594 1298.988281 944.980469 C 1290.230469 969.878906 1287.050781 992.53125 1289.441406 1012.941406 C 1290.171875 1022.96875 1294.238281 1038.558594 1301.648438 1059.710938 C 1303.191406 1064.808594 1315.339844 1088.808594 1338.089844 1131.691406 C 1340.789062 1137.269531 1343.539062 1144.449219 1346.320312 1153.230469 C 1349.179688 1163.171875 1350.71875 1172.660156 1350.929688 1181.691406 C 1350.601562 1186.109375 1350.289062 1190.308594 1350 1194.289062 C 1335.359375 1151.820312 1323.078125 1125.199219 1313.160156 1114.429688 C 1301.140625 1095.589844 1268.160156 1056.78125 1214.199219 998 C 1205.269531 987.28125 1195.820312 973.21875 1185.851562 955.820312 C 1164 907.789062 1153.101562 869.199219 1153.148438 840.039062 C 1152.378906 830.550781 1152.71875 818.140625 1154.160156 802.800781 C 1166.898438 734.878906 1172.769531 690.179688 1171.769531 668.691406 C 1173.308594 651.730469 1170.101562 622.898438 1162.140625 582.191406 C 1153.871094 540.808594 1123.019531 486.808594 1069.589844 420.210938 L 1069.25 420.179688 C 1069.191406 420.160156 1069.128906 420.160156 1069.078125 420.160156 C 1068.511719 420.160156 1068.359375 420.910156 1068.640625 422.429688 C 1074.730469 434.910156 1081.75 452.519531 1089.691406 475.25 C 1094.210938 490.308594 1096.539062 498.960938 1096.691406 501.199219 C 1101.71875 523.898438 1103.511719 545.710938 1102.058594 566.648438 C 1099.96875 587.941406 1094.890625 606.890625 1086.808594 623.511719 C 1046.929688 690.769531 1026.609375 726.699219 1025.859375 731.289062 C 1015.570312 759.691406 1008.808594 783.070312 1005.578125 801.421875 C 1001.769531 811.679688 998.867188 845.179688 996.894531 901.910156 C 996.828125 945.410156 1001.5 985.691406 1010.921875 1022.761719 C 1020.808594 1059.960938 1034.488281 1093.660156 1051.96875 1123.859375 C 1074.898438 1155.460938 1102.378906 1187.300781 1134.410156 1219.390625 L 1132.089844 1225.570312 C 1129.761719 1232.808594 1127.890625 1240.789062 1126.511719 1249.511719 C 1125.128906 1258.230469 1124.230469 1267.691406 1123.800781 1277.878906 C 1123.921875 1286.539062 1124.269531 1294.289062 1124.871094 1301.140625 C 1112.851562 1299.960938 1102.71875 1297.371094 1094.5 1293.359375 C 1078.558594 1284.929688 1069.351562 1279.019531 1066.878906 1275.601562 C 1061.199219 1270.578125 1055.808594 1264.828125 1050.730469 1258.371094 C 1039.878906 1244.851562 1031.78125 1231.800781 1026.429688 1219.210938 C 1023.160156 1212.398438 1012.691406 1183.089844 995.03125 1131.269531 C 988.425781 1115.628906 982.464844 1103.671875 977.144531 1095.390625 C 958.460938 1065.988281 936.1875 1042.210938 910.332031 1024.058594 L 910.1875 1024.039062 C 910.132812 1024.019531 910.082031 1024.011719 910.035156 1024.011719 C 909.554688 1024.011719 909.539062 1025.078125 909.996094 1027.21875 C 914.578125 1036.101562 917.761719 1043.730469 919.546875 1050.121094 C 921.390625 1056.230469 922.789062 1064.480469 923.734375 1074.871094 C 924.460938 1165.648438 926.03125 1216.511719 928.441406 1227.449219 L 929.382812 1229.679688 L 932.625 1249.308594 L 937.152344 1268.109375 L 942.96875 1286.101562 C 947.273438 1297.820312 952.4375 1309 958.460938 1319.640625 C 998.84375 1386.601562 1059.601562 1426.269531 1140.730469 1438.660156 C 1140.828125 1437.710938 1140.929688 1436.769531 1141.03125 1435.851562 C 1139.898438 1446.320312 1138.441406 1458.699219 1136.640625 1473 C 1136.230469 1484.738281 1136.601562 1495 1137.730469 1503.78125 C 1139.109375 1512.460938 1140.578125 1520.160156 1142.121094 1526.871094 C 1138.691406 1526.039062 1135.109375 1525.578125 1131.390625 1525.46875 C 1130.421875 1525.429688 1129.441406 1525.410156 1128.441406 1525.410156 C 1126.679688 1525.410156 1124.871094 1525.480469 1123.039062 1525.609375 C 1103.359375 1527.910156 1090.96875 1529.21875 1085.890625 1529.519531 C 1077.949219 1530.171875 1071.570312 1530.488281 1066.761719 1530.5 C 1055.511719 1530.511719 1043.460938 1529.109375 1030.621094 1526.289062 L 1025.601562 1525.171875 L 1025.589844 1525.171875 C 1030.078125 1538.21875 1042.339844 1550.929688 1062.371094 1563.28125 L 1071.441406 1568.519531 C 1077.640625 1571.878906 1084.101562 1574.980469 1090.839844 1577.808594 C 1104.308594 1583.46875 1118.878906 1588.070312 1134.550781 1591.601562 C 1143.28125 1593.148438 1151.601562 1593.921875 1159.511719 1593.910156 C 1163.328125 1593.898438 1167.050781 1593.710938 1170.671875 1593.351562 C 1174.640625 1592.898438 1177.988281 1592.5 1180.730469 1592.128906 C 1182.078125 1593.53125 1183.449219 1594.929688 1184.851562 1596.320312 C 1191.769531 1603.519531 1214.171875 1620.878906 1252.050781 1648.421875 L 1303.339844 1704.929688 C 1308.371094 1708.121094 1312.921875 1709.710938 1316.988281 1709.710938 C 1324.101562 1709.699219 1329.75 1704.820312 1333.929688 1695.078125 C 1334.789062 1693.109375 1335.449219 1690.339844 1335.929688 1686.800781 C 1336.210938 1669.660156 1337.089844 1657.390625 1338.570312 1650 C 1350.589844 1611.160156 1356.949219 1588.640625 1357.671875 1582.449219 C 1359.789062 1567.148438 1359.871094 1555.5 1357.921875 1547.511719 C 1355.191406 1533.800781 1347.929688 1520.808594 1336.148438 1508.558594 C 1329.21875 1501.890625 1309.210938 1489.519531 1276.121094 1471.441406 C 1267.589844 1465.160156 1258.320312 1453.511719 1248.320312 1436.5 C 1240.160156 1421.359375 1235.078125 1405.988281 1233.089844 1390.390625 C 1232.101562 1382.601562 1231.878906 1374.75 1232.429688 1366.839844 L 1233.839844 1354.941406 C 1234 1354 1234.160156 1353.058594 1234.339844 1352.121094 C 1240.238281 1360.710938 1245.898438 1368.730469 1251.320312 1376.160156 C 1284.601562 1418.070312 1316.320312 1439.011719 1346.460938 1438.96875 L 1346.519531 1438.96875 C 1349.328125 1439.25 1352.171875 1439.429688 1355.050781 1439.511719 C 1356.339844 1439.550781 1357.640625 1439.570312 1358.949219 1439.558594 C 1357.640625 1439.570312 1356.339844 1439.550781 1355.050781 1439.511719 C 1353.820312 1441.519531 1353.039062 1443.910156 1352.710938 1446.691406 C 1352.511719 1449.300781 1352.800781 1452.328125 1353.578125 1455.789062 C 1355.289062 1462.121094 1357.03125 1467.101562 1358.820312 1470.710938 C 1379.898438 1507.488281 1391.660156 1530.78125 1394.089844 1540.601562 C 1397.320312 1554.070312 1399.5 1565.371094 1400.648438 1574.5 C 1401.199219 1577.078125 1401.78125 1584.609375 1402.378906 1597.078125 C 1402.488281 1602.050781 1402.421875 1606.980469 1402.171875 1611.871094 C 1403.109375 1615.679688 1404.539062 1618.78125 1406.460938 1621.179688 C 1410.601562 1624.210938 1415.339844 1625.71875 1420.679688 1625.710938 C 1424.359375 1625.710938 1428.339844 1624.980469 1432.609375 1623.519531 C 1439.710938 1621.820312 1452.648438 1615.679688 1471.429688 1605.089844 C 1472.921875 1604.429688 1474.589844 1603.820312 1476.441406 1603.230469 C 1478.289062 1603.808594 1479.960938 1604.429688 1481.460938 1605.070312 C 1500.261719 1615.621094 1513.210938 1621.730469 1520.320312 1623.421875 C 1524.589844 1624.859375 1528.570312 1625.578125 1532.261719 1625.570312 C 1537.601562 1625.570312 1542.328125 1624.050781 1546.460938 1621.011719 C 1548.378906 1618.609375 1549.808594 1615.5 1550.730469 1611.691406 C 1550.46875 1606.800781 1550.390625 1601.871094 1550.488281 1596.898438 C 1551.058594 1584.429688 1551.609375 1576.890625 1552.160156 1574.320312 C 1553.28125 1565.191406 1555.441406 1553.878906 1558.628906 1540.398438 C 1561.039062 1530.570312 1572.738281 1507.25 1593.738281 1470.429688 C 1595.519531 1466.808594 1597.25 1461.820312 1598.941406 1455.480469 C 1599.710938 1452.03125 1599.988281 1449 1599.789062 1446.390625 C 1599.449219 1443.609375 1598.671875 1441.21875 1597.429688 1439.210938 C 1600.308594 1439.121094 1603.148438 1438.941406 1605.960938 1438.660156 L 1606.011719 1438.660156 C 1636.160156 1438.621094 1667.820312 1417.609375 1701 1375.609375 C 1706.410156 1368.171875 1712.039062 1360.140625 1717.921875 1351.53125 C 1717.921875 1351.53125 1717.921875 1351.53125 1717.921875 1351.519531 C 1718.109375 1352.46875 1718.269531 1353.410156 1718.429688 1354.359375 L 1719.871094 1366.25 C 1720.441406 1374.160156 1720.238281 1382.011719 1719.269531 1389.808594 C 1717.320312 1405.398438 1712.28125 1420.78125 1704.148438 1435.949219 C 1694.191406 1452.980469 1684.949219 1464.648438 1676.441406 1470.949219 C 1643.390625 1489.109375 1623.410156 1501.539062 1616.5 1508.21875 C 1604.75 1520.5 1597.519531 1533.5 1594.820312 1547.21875 C 1592.890625 1555.21875 1593 1566.871094 1595.160156 1582.160156 C 1595.890625 1588.351562 1602.308594 1610.851562 1614.421875 1649.671875 C 1615.921875 1657.050781 1616.828125 1669.320312 1617.160156 1686.460938 C 1617.640625 1690 1618.308594 1692.761719 1619.171875 1694.730469 C 1623.378906 1704.460938 1629.039062 1709.328125 1636.140625 1709.320312 C 1640.21875 1709.308594 1644.761719 1707.710938 1649.789062 1704.511719 L 1700.941406 1647.871094 C 1738.75 1620.238281 1761.109375 1602.820312 1768.011719 1595.609375 C 1769.410156 1594.210938 1770.769531 1592.808594 1772.109375 1591.410156 L 1772.121094 1591.410156 C 1774.871094 1591.769531 1778.21875 1592.171875 1782.179688 1592.609375 C 1785.808594 1592.960938 1789.53125 1593.140625 1793.339844 1593.140625 C 1801.25 1593.121094 1809.570312 1592.339844 1818.300781 1590.769531 C 1833.960938 1587.191406 1848.519531 1582.570312 1861.980469 1576.871094 C 1868.710938 1574.03125 1875.160156 1570.910156 1881.339844 1567.539062 L 1890.410156 1562.269531 C 1910.410156 1549.871094 1922.628906 1537.140625 1927.089844 1524.070312 L 1927.078125 1524.070312 L 1922.070312 1525.199219 C 1909.230469 1528.058594 1897.191406 1529.480469 1885.941406 1529.5 C 1881.128906 1529.511719 1874.75 1529.199219 1866.800781 1528.570312 C 1861.71875 1528.28125 1849.339844 1527.011719 1829.648438 1524.75 C 1827.820312 1524.621094 1826.019531 1524.558594 1824.238281 1524.558594 C 1823.25 1524.570312 1822.269531 1524.589844 1821.289062 1524.628906 C 1817.570312 1524.75 1814 1525.21875 1810.570312 1526.058594 C 1812.101562 1519.339844 1813.550781 1511.640625 1814.910156 1502.960938 C 1816.019531 1494.171875 1816.351562 1483.910156 1815.910156 1472.179688 C 1814.25 1459.140625 1812.859375 1447.699219 1811.75 1437.851562 L 1811.738281 1437.851562 C 1811.738281 1437.851562 1811.738281 1437.851562 1811.75 1437.851562 C 1892.851562 1425.261719 1953.5 1385.429688 1993.730469 1318.371094 C 1999.71875 1307.730469 2004.859375 1296.539062 2009.140625 1284.808594 L 2014.910156 1266.800781 L 2019.390625 1247.980469 L 2022.589844 1228.351562 L 2023.519531 1226.109375 C 2025.910156 1215.171875 2027.351562 1164.308594 2027.859375 1073.53125 C 2028.78125 1063.128906 2030.148438 1054.878906 2031.980469 1048.769531 C 2033.75 1042.371094 2036.921875 1034.730469 2041.480469 1025.839844 C 2041.929688 1023.699219 2041.910156 1022.628906 2041.429688 1022.628906 C 2041.390625 1022.628906 2041.339844 1022.640625 2041.28125 1022.660156 L 2041.140625 1022.679688 C 2015.320312 1040.898438 1993.109375 1064.730469 1974.5 1094.179688 C 1969.199219 1102.46875 1963.269531 1114.441406 1956.699219 1130.101562 C 1939.160156 1181.960938 1928.769531 1211.300781 1925.519531 1218.121094 C 1920.191406 1230.710938 1912.128906 1243.789062 1901.308594 1257.328125 C 1896.238281 1263.808594 1890.871094 1269.570312 1885.191406 1274.609375 C 1882.738281 1278.019531 1873.550781 1283.960938 1857.628906 1292.429688 C 1849.410156 1296.460938 1839.289062 1299.078125 1827.269531 1300.28125 C 1827.851562 1293.429688 1828.191406 1285.679688 1828.289062 1277.03125 C 1827.828125 1266.828125 1826.910156 1257.371094 1825.5 1248.660156 C 1824.101562 1239.941406 1822.21875 1231.960938 1819.859375 1224.730469 L 1815.96875 1214.429688 L 1817.539062 1218.558594 C 1849.480469 1186.390625 1876.890625 1154.480469 1899.738281 1122.828125 C 1917.140625 1092.589844 1930.75 1058.851562 1940.539062 1021.621094 C 1949.871094 984.539062 1954.449219 944.25 1954.28125 900.738281 C 1952.160156 844.019531 1949.191406 810.519531 1945.339844 800.269531 C 1942.070312 781.929688 1935.261719 758.570312 1924.890625 730.191406 C 1924.140625 725.609375 1903.730469 689.730469 1863.679688 622.558594 C 1855.558594 605.960938 1850.429688 587.03125 1848.289062 565.738281 C 1846.789062 544.808594 1848.53125 522.988281 1853.5 500.28125 C 1853.648438 498.03125 1855.960938 489.378906 1860.441406 474.308594 C 1868.328125 451.558594 1875.308594 433.929688 1881.371094 421.441406 C 1881.640625 419.929688 1881.488281 419.160156 1880.921875 419.160156 Z M 1476.449219 1611.941406 C 1471.839844 1614.859375 1466.371094 1618.359375 1460.019531 1622.449219 C 1456.128906 1624.410156 1452.539062 1625.988281 1449.261719 1627.210938 C 1446.191406 1628.351562 1443.390625 1629.160156 1440.871094 1629.648438 C 1435.859375 1630.710938 1431.039062 1631.25 1426.390625 1631.25 C 1424.039062 1631.25 1421.738281 1631.121094 1419.480469 1630.859375 C 1408.53125 1629.25 1399.828125 1626.800781 1393.390625 1623.53125 C 1391.050781 1625.578125 1388.851562 1628.789062 1386.808594 1633.148438 C 1385.179688 1635.78125 1382.859375 1643.050781 1379.820312 1654.960938 C 1376.101562 1675.191406 1374.320312 1687.429688 1374.460938 1691.679688 C 1374.058594 1698.878906 1374.449219 1704.03125 1375.660156 1707.101562 C 1387.410156 1708.46875 1396 1709.941406 1401.421875 1711.511719 C 1410.519531 1714.308594 1417.140625 1716.601562 1421.289062 1718.371094 C 1439.589844 1727.238281 1450.710938 1732.351562 1454.648438 1733.691406 C 1463.539062 1736.710938 1470.789062 1738.210938 1476.429688 1738.199219 C 1476.488281 1738.199219 1476.539062 1738.199219 1476.601562 1738.199219 C 1476.621094 1738.199219 1476.628906 1738.199219 1476.640625 1738.199219 L 1476.660156 1738.199219 C 1476.691406 1738.199219 1476.738281 1738.199219 1476.78125 1738.199219 C 1482.410156 1738.199219 1489.671875 1736.679688 1498.539062 1733.640625 C 1502.480469 1732.289062 1513.589844 1727.148438 1531.871094 1718.230469 C 1536.011719 1716.449219 1542.628906 1714.148438 1551.71875 1711.320312 C 1557.140625 1709.738281 1565.71875 1708.25 1577.460938 1706.859375 C 1578.671875 1703.78125 1579.058594 1698.628906 1578.628906 1691.429688 C 1578.761719 1687.179688 1576.949219 1674.949219 1573.191406 1654.71875 C 1570.121094 1642.820312 1567.769531 1635.558594 1566.148438 1632.929688 C 1564.089844 1628.570312 1561.890625 1625.371094 1559.539062 1623.320312 C 1553.101562 1626.621094 1544.410156 1629.078125 1533.460938 1630.71875 C 1531.210938 1630.988281 1528.910156 1631.128906 1526.558594 1631.128906 C 1521.910156 1631.140625 1517.078125 1630.609375 1512.070312 1629.570312 C 1509.550781 1629.078125 1506.75 1628.269531 1503.671875 1627.140625 L 1478.589844 1738.121094 L 1503.671875 1627.140625 C 1500.390625 1625.929688 1496.808594 1624.359375 1492.898438 1622.410156 C 1486.550781 1618.339844 1481.070312 1614.851562 1476.449219 1611.941406 Z M 1381.738281 1714.328125 C 1381.140625 1714.328125 1380.710938 1714.410156 1380.460938 1714.589844 L 1380.121094 1714.601562 C 1379.769531 1714.570312 1379.410156 1714.570312 1379.058594 1714.570312 C 1369.859375 1714.578125 1359.808594 1721.75 1348.929688 1736.089844 C 1338.609375 1750.640625 1333.589844 1766.351562 1333.859375 1783.191406 C 1333.609375 1788.789062 1335.011719 1795.988281 1338.058594 1804.789062 C 1354.648438 1836.519531 1363.121094 1855.449219 1363.480469 1861.601562 C 1364.949219 1867.300781 1366.160156 1873.449219 1367.101562 1880.03125 C 1369.480469 1906.710938 1371.359375 1923.710938 1372.730469 1931.019531 C 1374.269531 1940.46875 1375.890625 1948.351562 1377.621094 1954.660156 C 1382.210938 1972.308594 1395.75 1992.078125 1418.25 2013.972656 C 1424.589844 2019.378906 1431.160156 2023.753906 1437.941406 2027.101562 L 1448.300781 2031.355469 C 1455.308594 2033.679688 1462.550781 2034.972656 1470 2035.238281 C 1471.089844 2034.945312 1470.050781 2031.828125 1466.890625 2025.894531 C 1445.070312 1996.03125 1431.589844 1973.929688 1426.480469 1959.578125 C 1422.390625 1948.160156 1421.761719 1934.589844 1424.570312 1918.859375 C 1425.378906 1916.03125 1426.410156 1914.621094 1427.660156 1914.621094 C 1428.699219 1914.621094 1429.890625 1915.601562 1431.238281 1917.558594 C 1433.359375 1926.441406 1437.160156 1936.890625 1442.621094 1948.910156 C 1445.789062 1955.089844 1449.050781 1959.53125 1452.421875 1962.230469 C 1460.28125 1968.109375 1466.808594 1971.039062 1472 1971.03125 C 1473.789062 1971.03125 1475.410156 1970.691406 1476.878906 1969.988281 C 1476.871094 1969.980469 1476.859375 1969.980469 1476.839844 1969.96875 C 1476.820312 1969.960938 1476.808594 1969.949219 1476.789062 1969.941406 C 1476.820312 1969.960938 1476.851562 1969.96875 1476.890625 1969.988281 C 1478.359375 1970.679688 1479.988281 1971.03125 1481.769531 1971.019531 C 1486.96875 1971.019531 1493.488281 1968.070312 1501.328125 1962.171875 C 1504.691406 1959.460938 1507.949219 1955.019531 1511.101562 1948.828125 C 1516.539062 1936.800781 1520.300781 1926.339844 1522.398438 1917.441406 C 1523.75 1915.480469 1524.941406 1914.5 1525.980469 1914.5 C 1527.230469 1914.5 1528.261719 1915.910156 1529.078125 1918.730469 C 1531.929688 1934.460938 1531.320312 1948.03125 1527.269531 1959.460938 C 1522.191406 1973.820312 1508.769531 1995.949219 1487.011719 2025.871094 C 1483.871094 2031.8125 1482.839844 2034.929688 1483.929688 2035.222656 C 1491.378906 2034.9375 1498.621094 2033.625 1505.621094 2031.285156 L 1515.960938 2027.007812 C 1522.738281 2023.640625 1529.300781 2019.25 1535.628906 2013.832031 C 1558.070312 1991.878906 1571.570312 1972.070312 1576.121094 1954.421875 C 1577.820312 1948.109375 1579.429688 1940.21875 1580.941406 1930.769531 C 1582.289062 1923.449219 1584.128906 1906.449219 1586.449219 1879.769531 C 1587.378906 1873.179688 1588.570312 1867.03125 1590.03125 1861.320312 C 1590.371094 1855.171875 1598.800781 1836.210938 1615.308594 1804.449219 C 1618.339844 1795.640625 1619.71875 1788.441406 1619.460938 1782.839844 C 1619.679688 1766 1614.621094 1750.308594 1604.269531 1735.78125 C 1593.351562 1721.460938 1583.289062 1714.320312 1574.089844 1714.328125 C 1573.738281 1714.328125 1573.390625 1714.339844 1573.03125 1714.359375 L 1572.691406 1714.359375 C 1572.441406 1714.179688 1572.011719 1714.089844 1571.410156 1714.101562 C 1565.320312 1714.101562 1541.210938 1722.949219 1499.058594 1740.648438 C 1495.359375 1741.589844 1491.25 1742.058594 1486.71875 1742.070312 C 1483.558594 1742.070312 1480.179688 1741.839844 1476.609375 1741.390625 C 1473.671875 1741.769531 1470.871094 1742 1468.210938 1742.070312 C 1467.628906 1742.078125 1467.058594 1742.089844 1466.488281 1742.089844 C 1465.929688 1742.089844 1465.359375 1742.089844 1464.808594 1742.070312 L 1431.75 1812.121094 L 1464.808594 1742.070312 C 1460.941406 1741.96875 1457.390625 1741.519531 1454.148438 1740.699219 C 1411.960938 1723.109375 1387.820312 1714.320312 1381.738281 1714.328125 Z M 1236.75 1690.980469 C 1212.929688 1692.988281 1181.859375 1711.339844 1143.539062 1746.039062 C 1129.558594 1760.121094 1118.378906 1776 1109.988281 1793.679688 C 1100.671875 1816.191406 1096.011719 1830.839844 1096.019531 1837.640625 C 1096.140625 1838.238281 1096.441406 1838.539062 1096.941406 1838.539062 C 1097.339844 1838.539062 1097.878906 1838.339844 1098.539062 1837.929688 C 1106.320312 1826.121094 1118.980469 1812.140625 1136.511719 1795.988281 C 1150.261719 1785.371094 1161.359375 1778.601562 1169.820312 1775.648438 C 1185.488281 1769.949219 1201.640625 1767.089844 1218.28125 1767.070312 C 1232.519531 1767.058594 1247.109375 1769.121094 1262.058594 1773.261719 C 1264.398438 1774.980469 1261.460938 1783.320312 1253.238281 1798.25 C 1248.609375 1806.53125 1241.25 1813.941406 1231.179688 1820.488281 C 1222.929688 1828.609375 1199.261719 1833.53125 1160.160156 1835.25 C 1165.480469 1844.101562 1174.058594 1853.46875 1185.910156 1863.378906 C 1224.320312 1888.179688 1245.648438 1902.738281 1249.898438 1907.070312 C 1260.128906 1916.5 1267.558594 1927.609375 1272.210938 1940.410156 C 1276.648438 1959.960938 1275.769531 1976.71875 1269.539062 1990.691406 C 1266.058594 1999.5 1262.53125 2006.679688 1258.941406 2012.242188 L 1233.960938 2043.480469 C 1231.21875 2047.457031 1230.089844 2050.167969 1230.558594 2051.617188 C 1235.21875 2052.894531 1240.890625 2053.527344 1247.558594 2053.519531 C 1269.359375 2053.492188 1301.890625 2046.597656 1345.140625 2032.832031 C 1347.71875 2040.675781 1341.300781 2067.339844 1325.859375 2112.824219 C 1324.21875 2122.449219 1324.179688 2128.628906 1325.710938 2131.355469 C 1326.269531 2132.765625 1327.019531 2133.46875 1327.949219 2133.46875 C 1328.640625 2133.46875 1329.441406 2133.074219 1330.339844 2132.285156 C 1342.25 2115.226562 1354.089844 2101.195312 1365.859375 2090.191406 C 1370.441406 2085.722656 1374.359375 2083.484375 1377.601562 2083.480469 C 1378.109375 2083.480469 1378.589844 2083.535156 1379.070312 2083.640625 C 1379.828125 2098.820312 1380.949219 2112.480469 1382.441406 2124.621094 C 1382.730469 2132.589844 1385.761719 2147.386719 1391.53125 2169.007812 C 1396.179688 2184.066406 1403.199219 2193.273438 1412.601562 2196.632812 C 1412.738281 2196.652344 1412.878906 2196.660156 1413.019531 2196.660156 C 1414.339844 2196.65625 1415.351562 2195.859375 1416.070312 2194.257812 C 1420.871094 2174.578125 1424.859375 2161.757812 1428.019531 2155.796875 C 1428.820312 2153.234375 1431.980469 2147.273438 1437.511719 2137.917969 L 1441.070312 2132.820312 L 1440.96875 2135.011719 L 1443.238281 2128.703125 C 1447.058594 2116.003906 1446.550781 2102.800781 1441.710938 2089.09375 C 1438.730469 2080.195312 1433.339844 2070.597656 1425.539062 2060.296875 L 1369.75 2002.46875 C 1357.289062 1985.699219 1348.679688 1972.308594 1343.898438 1962.289062 C 1336.03125 1948.53125 1329.960938 1932.078125 1325.679688 1912.929688 C 1324.988281 1909.699219 1324.359375 1906.390625 1323.789062 1902.988281 C 1318.609375 1846.320312 1314.371094 1808.128906 1311.070312 1788.398438 C 1310.359375 1781.191406 1307.089844 1770.300781 1301.25 1755.730469 C 1281.859375 1716.910156 1261.308594 1695.371094 1239.621094 1691.140625 Z M 1716.339844 1690.398438 L 1713.46875 1690.558594 C 1691.789062 1694.851562 1671.300781 1716.429688 1652 1755.308594 C 1646.191406 1769.878906 1642.949219 1780.78125 1642.261719 1788 C 1639.011719 1807.730469 1634.859375 1845.941406 1629.820312 1902.609375 C 1629.261719 1906.019531 1628.640625 1909.328125 1627.949219 1912.558594 C 1623.71875 1931.71875 1617.691406 1948.191406 1609.851562 1961.960938 C 1605.101562 1972 1596.519531 1985.410156 1584.101562 2002.207031 L 1528.460938 2060.167969 C 1520.671875 2070.492188 1515.308594 2080.101562 1512.351562 2089.007812 C 1507.539062 2102.726562 1507.070312 2115.929688 1510.910156 2128.621094 L 1513.199219 2134.925781 L 1513.101562 2132.734375 L 1516.671875 2137.820312 C 1522.21875 2147.164062 1525.398438 2153.113281 1526.199219 2155.675781 C 1529.378906 2161.628906 1533.390625 2174.441406 1538.25 2194.109375 C 1538.96875 2195.707031 1539.980469 2196.503906 1541.300781 2196.503906 C 1541.441406 2196.503906 1541.578125 2196.492188 1541.71875 2196.476562 C 1551.109375 2193.09375 1558.109375 2183.871094 1562.71875 2168.800781 C 1568.441406 2147.164062 1571.441406 2132.363281 1571.710938 2124.390625 C 1573.160156 2112.246094 1574.25 2098.582031 1574.980469 2083.402344 C 1575.449219 2083.292969 1575.941406 2083.242188 1576.441406 2083.238281 C 1579.691406 2083.234375 1583.609375 2085.460938 1588.210938 2089.921875 C 1600 2100.894531 1611.878906 2114.898438 1623.820312 2131.929688 C 1624.71875 2132.714844 1625.519531 2133.105469 1626.21875 2133.105469 C 1627.148438 2133.105469 1627.890625 2132.398438 1628.449219 2130.988281 C 1629.980469 2128.253906 1629.921875 2122.078125 1628.261719 2112.457031 C 1612.710938 2067.007812 1606.21875 2040.363281 1608.78125 2032.511719 L 1608.789062 2032.511719 C 1652.070312 2046.171875 1684.609375 2052.988281 1706.421875 2052.960938 C 1713.089844 2052.953125 1718.75 2052.304688 1723.410156 2051.019531 C 1723.878906 2049.566406 1722.738281 2046.859375 1719.988281 2042.886719 L 1694.929688 2011.710938 C 1691.328125 2006.160156 1687.789062 1998.980469 1684.28125 1990.191406 C 1678.019531 1976.230469 1677.089844 1959.46875 1681.480469 1939.910156 C 1686.101562 1927.101562 1693.519531 1915.96875 1703.71875 1906.519531 C 1707.960938 1902.179688 1729.25 1887.570312 1767.601562 1862.679688 C 1779.429688 1852.730469 1787.988281 1843.339844 1793.28125 1834.480469 C 1754.179688 1832.859375 1730.5 1827.988281 1722.230469 1819.890625 C 1712.140625 1813.371094 1704.769531 1805.980469 1700.109375 1797.710938 C 1691.859375 1782.789062 1688.890625 1774.46875 1691.230469 1772.738281 C 1706.171875 1768.558594 1720.761719 1766.460938 1735 1766.441406 C 1751.640625 1766.429688 1767.800781 1769.25 1783.480469 1774.898438 C 1791.941406 1777.828125 1803.058594 1784.578125 1816.839844 1795.160156 C 1834.410156 1811.269531 1847.101562 1825.210938 1854.910156 1837.011719 C 1855.570312 1837.410156 1856.109375 1837.609375 1856.519531 1837.609375 C 1857.011719 1837.609375 1857.308594 1837.308594 1857.429688 1836.71875 C 1857.421875 1829.921875 1852.730469 1815.28125 1843.351562 1792.789062 C 1834.921875 1775.128906 1823.699219 1759.28125 1809.679688 1745.230469 C 1771.28125 1710.621094 1740.171875 1692.339844 1716.339844 1690.398438 Z M 1716.339844 1690.398438 "/>
    <path fill-rule="nonzero" fill="rgb(0%, 0%, 0%)" fill-opacity="1"
          d="M 2067.089844 2387.066406 C 2070.800781 2387.066406 2074.609375 2387.125 2078.511719 2387.246094 C 2088.179688 2387.535156 2096.929688 2390.03125 2104.75 2394.730469 C 2113.988281 2400.144531 2118.820312 2407.046875 2119.238281 2415.441406 C 2120.5 2439.601562 2105.519531 2451.683594 2074.28125 2451.683594 C 2074.25 2451.683594 2074.21875 2451.683594 2074.191406 2451.683594 L 2051.570312 2451.667969 L 2051.621094 2387.4375 C 2056.578125 2387.191406 2061.730469 2387.066406 2067.089844 2387.066406 Z M 782.921875 2387.3125 C 784.050781 2387.3125 785.15625 2387.328125 786.234375 2387.351562 C 806.578125 2387.9375 820.800781 2392.214844 828.902344 2400.1875 C 835.160156 2406.164062 838.28125 2415.128906 838.273438 2427.078125 C 837.976562 2442.585938 832.136719 2453.320312 820.75 2459.289062 C 812.234375 2463.964844 799.40625 2466.300781 782.261719 2466.300781 C 782.214844 2466.300781 782.167969 2466.300781 782.121094 2466.300781 C 781.621094 2466.230469 781.121094 2466.195312 780.621094 2466.195312 C 780.125 2466.195312 779.628906 2466.230469 779.136719 2466.300781 C 774.867188 2466.152344 770.101562 2465.867188 764.839844 2465.433594 L 764.898438 2388.1875 C 771.488281 2387.605469 777.5 2387.3125 782.921875 2387.3125 Z M 947.125 2394.726562 L 977.148438 2477.96875 L 917.828125 2477.925781 Z M 641.050781 2386.601562 C 641.078125 2386.601562 641.105469 2386.601562 641.132812 2386.601562 C 657.351562 2386.617188 669.867188 2389.683594 678.683594 2395.808594 C 687.070312 2401.503906 693.183594 2407.484375 697.019531 2413.746094 C 703.273438 2424.132812 707.03125 2438.933594 708.296875 2458.136719 C 708.296875 2458.847656 708.296875 2460.628906 708.292969 2463.472656 C 708.289062 2466.316406 708.289062 2468.097656 708.289062 2468.808594 C 706.996094 2488.152344 703.140625 2503.015625 696.734375 2513.394531 C 692.886719 2519.652344 686.765625 2525.550781 678.367188 2531.09375 C 668.992188 2537.191406 656.574219 2540.242188 641.109375 2540.242188 C 641.078125 2540.242188 641.046875 2540.242188 641.019531 2540.242188 C 635.472656 2540.238281 626.9375 2539.875 615.414062 2539.15625 L 615.457031 2481.753906 L 615.527344 2387.863281 C 626.992188 2387.023438 635.5 2386.601562 641.050781 2386.601562 Z M 1249.449219 2387.054688 C 1249.460938 2387.054688 1249.480469 2387.054688 1249.5 2387.054688 C 1268.28125 2387.070312 1283.851562 2394.550781 1296.210938 2409.496094 C 1308.578125 2424.441406 1314.75 2442.726562 1314.738281 2464.351562 C 1314.71875 2485.832031 1308.519531 2504.035156 1296.128906 2518.964844 C 1283.761719 2534.019531 1268.191406 2541.546875 1249.441406 2541.546875 C 1249.421875 2541.546875 1249.398438 2541.546875 1249.378906 2541.546875 C 1230.75 2541.535156 1215.679688 2533.984375 1204.160156 2518.894531 C 1193.21875 2504.375 1187.761719 2486.164062 1187.769531 2464.253906 C 1187.789062 2442.207031 1193.28125 2424 1204.238281 2409.640625 C 1215.769531 2394.582031 1230.839844 2387.054688 1249.449219 2387.054688 Z M 2051.558594 2462.335938 L 2089.761719 2462.363281 C 2100.429688 2462.371094 2110.101562 2465.226562 2118.769531 2470.921875 C 2128.871094 2477.617188 2134.199219 2486.441406 2134.761719 2497.394531 C 2135.320312 2510.765625 2132.46875 2520.792969 2126.199219 2527.476562 C 2117.949219 2536.574219 2102.929688 2541.398438 2081.160156 2541.953125 C 2080.179688 2541.96875 2079.171875 2541.976562 2078.140625 2541.976562 C 2070.53125 2541.976562 2061.648438 2541.535156 2051.511719 2540.648438 Z M 2238.28125 2387.789062 C 2238.300781 2387.789062 2238.320312 2387.789062 2238.328125 2387.789062 C 2257.109375 2387.804688 2272.679688 2395.285156 2285.050781 2410.230469 C 2297.410156 2425.175781 2303.589844 2443.460938 2303.570312 2465.085938 C 2303.558594 2486.566406 2297.359375 2504.769531 2284.96875 2519.699219 C 2272.589844 2534.753906 2257.019531 2542.28125 2238.269531 2542.28125 C 2238.25 2542.28125 2238.230469 2542.28125 2238.21875 2542.28125 C 2219.578125 2542.269531 2204.511719 2534.71875 2193 2519.628906 C 2182.058594 2505.109375 2176.589844 2486.898438 2176.609375 2464.988281 C 2176.628906 2442.941406 2182.109375 2424.734375 2193.078125 2410.375 C 2204.601562 2395.316406 2219.671875 2387.789062 2238.28125 2387.789062 Z M 786.347656 2376.410156 C 777.710938 2376.410156 767.003906 2377.207031 754.234375 2378.792969 L 754.109375 2548.859375 L 764.777344 2548.871094 L 764.832031 2475.890625 C 771.945312 2476.609375 777.632812 2477.039062 781.902344 2477.183594 C 805.5 2499.394531 828.882812 2523.097656 852.050781 2548.292969 L 866.136719 2548.304688 C 843.535156 2523.109375 820.648438 2499.261719 797.480469 2476.769531 C 814.125 2475.214844 826.574219 2470.671875 834.832031 2463.140625 C 843.230469 2455.464844 848.148438 2443.660156 849.582031 2427.730469 C 849.582031 2427.585938 849.582031 2427.445312 849.582031 2427.300781 L 849.582031 2427.089844 C 849.449219 2412.152344 845.691406 2400.695312 838.296875 2392.726562 C 828.773438 2382.617188 812.773438 2377.199219 790.296875 2376.472656 C 789.03125 2376.433594 787.714844 2376.410156 786.347656 2376.410156 Z M 941.585938 2378.71875 L 881.5 2548.957031 L 892.808594 2548.964844 L 914.191406 2488.59375 L 980.984375 2488.640625 L 1002.699219 2549.046875 L 1014.011719 2549.054688 L 952.683594 2378.726562 Z M 1360.039062 2378.386719 L 1359.910156 2549.097656 L 1370.578125 2549.105469 L 1370.691406 2398.667969 L 1463.621094 2549.175781 L 1463.828125 2549.175781 L 1474.289062 2549.183594 L 1474.628906 2378.472656 L 1463.960938 2378.464844 L 1463.851562 2529.117188 L 1370.710938 2378.394531 Z M 1722.800781 2379.085938 L 1777.789062 2466.613281 L 1777.71875 2549.410156 L 1788.390625 2549.417969 L 1788.449219 2467.261719 L 1789.308594 2465.769531 L 1843.570312 2379.175781 L 1830.980469 2379.164062 L 1783.128906 2455.523438 L 1735.390625 2379.09375 Z M 1872.378906 2378.984375 L 1872.25 2549.480469 L 1882.921875 2549.488281 L 1883.039062 2401.824219 L 1938.859375 2514.53125 L 1993.140625 2402.546875 L 1993.03125 2549.570312 L 2003.488281 2549.574219 L 2003.609375 2379.082031 L 1993.160156 2379.074219 L 1938.660156 2487.21875 L 1883.050781 2378.992188 Z M 2347.378906 2379.550781 L 2347.25 2549.832031 L 2433.039062 2549.894531 L 2433.039062 2539.4375 L 2357.929688 2539.382812 L 2357.96875 2483.261719 L 2358.050781 2379.558594 Z M 638.761719 2376.359375 C 636.332031 2376.359375 631.433594 2376.570312 624.070312 2376.988281 C 616.703125 2377.550781 611.382812 2377.828125 608.109375 2377.828125 C 608.09375 2377.828125 608.078125 2377.828125 608.066406 2377.828125 L 604.863281 2377.828125 L 604.738281 2548.75 L 604.949219 2548.75 C 618.179688 2549.898438 629.417969 2550.476562 638.664062 2550.484375 C 638.703125 2550.484375 638.746094 2550.484375 638.785156 2550.484375 C 658.929688 2550.484375 674.753906 2546.726562 686.257812 2539.207031 C 695.367188 2533.242188 702.34375 2526.203125 707.183594 2518.097656 C 714.164062 2506.15625 718.160156 2490.367188 719.171875 2470.734375 C 719.316406 2467.464844 719.386719 2465.046875 719.390625 2463.480469 C 719.390625 2461.917969 719.320312 2459.496094 719.179688 2456.226562 C 718.34375 2435.882812 714.371094 2419.945312 707.265625 2408.417969 C 702.863281 2401.160156 695.898438 2394.253906 686.371094 2387.703125 C 675.28125 2380.15625 659.421875 2376.375 638.792969 2376.359375 C 638.78125 2376.359375 638.773438 2376.359375 638.761719 2376.359375 Z M 1108.550781 2377.136719 C 1088.410156 2377.136719 1073.078125 2380.894531 1062.570312 2388.410156 C 1053.320312 2395.089844 1046.558594 2401.984375 1042.289062 2409.09375 C 1035.730469 2420.46875 1031.949219 2436.328125 1030.941406 2456.671875 L 1030.730469 2456.671875 L 1030.71875 2463.925781 C 1030.71875 2464.636719 1030.71875 2465.773438 1030.71875 2467.339844 C 1030.710938 2469.617188 1030.710938 2470.894531 1030.710938 2471.179688 L 1030.929688 2471.179688 C 1031.910156 2491.523438 1035.671875 2507.390625 1042.199219 2518.773438 C 1046.460938 2525.890625 1053.21875 2532.796875 1062.460938 2539.488281 C 1072.980469 2547.035156 1088.339844 2550.816406 1108.539062 2550.832031 C 1108.789062 2550.832031 1109.03125 2550.832031 1109.28125 2550.832031 C 1122.609375 2550.832031 1133.671875 2550.554688 1142.46875 2550.003906 L 1149.730469 2549.367188 L 1149.789062 2472.976562 L 1149.789062 2462.308594 L 1095.589844 2462.265625 L 1095.578125 2472.9375 L 1138.691406 2472.96875 L 1138.640625 2539.542969 C 1127.089844 2540.238281 1116.320312 2540.585938 1106.308594 2540.585938 C 1106.199219 2540.585938 1106.089844 2540.585938 1105.988281 2540.585938 C 1090.910156 2540.578125 1079.179688 2537.507812 1070.789062 2531.386719 C 1062.398438 2525.121094 1056.5 2519.070312 1053.089844 2513.234375 C 1047.121094 2503.128906 1043.5 2488.402344 1042.238281 2469.054688 C 1042.101562 2468.484375 1042.03125 2466.777344 1042.03125 2463.933594 C 1042.03125 2461.089844 1042.109375 2459.3125 1042.25 2458.597656 C 1043.539062 2439.394531 1047.179688 2424.746094 1053.160156 2414.648438 C 1056.578125 2408.675781 1062.488281 2402.636719 1070.890625 2396.523438 C 1079.269531 2390.425781 1090.980469 2387.375 1106.019531 2387.375 C 1106.050781 2387.375 1106.070312 2387.375 1106.101562 2387.375 C 1113.789062 2387.382812 1125.019531 2388.03125 1139.820312 2389.320312 L 1139.820312 2378.863281 C 1126.171875 2377.71875 1115.789062 2377.140625 1108.671875 2377.136719 C 1108.628906 2377.136719 1108.589844 2377.136719 1108.550781 2377.136719 Z M 1249.441406 2376.8125 C 1227.988281 2376.8125 1210.511719 2385.335938 1197 2402.378906 C 1183.75 2418.871094 1177.121094 2439.496094 1177.101562 2464.246094 C 1177.089844 2488.859375 1183.679688 2509.417969 1196.898438 2525.929688 C 1210.410156 2543.011719 1227.890625 2551.5625 1249.378906 2551.578125 C 1249.398438 2551.578125 1249.421875 2551.578125 1249.441406 2551.578125 C 1271.179688 2551.578125 1289.371094 2543.054688 1304.019531 2526.011719 C 1318.261719 2509.234375 1325.390625 2488.683594 1325.410156 2464.359375 C 1325.429688 2439.890625 1318.328125 2419.257812 1304.109375 2402.460938 C 1289.480469 2385.378906 1271.269531 2376.828125 1249.511719 2376.8125 C 1249.488281 2376.8125 1249.460938 2376.8125 1249.441406 2376.8125 Z M 1656.179688 2376.472656 C 1646.378906 2376.472656 1637.929688 2378.816406 1630.820312 2383.496094 C 1622 2389.464844 1616.300781 2398.636719 1613.730469 2411.011719 C 1613.160156 2413.714844 1612.878906 2416.347656 1612.878906 2418.90625 C 1612.871094 2428.722656 1617.199219 2437.832031 1625.871094 2446.230469 C 1628 2448.222656 1637.03125 2455.058594 1652.949219 2466.734375 C 1665.609375 2475.992188 1673.929688 2482.613281 1677.910156 2486.597656 C 1685.71875 2494.429688 1689.628906 2501.972656 1689.628906 2509.226562 C 1689.628906 2510.789062 1689.480469 2512.355469 1689.191406 2513.921875 C 1685.199219 2532.539062 1674.109375 2541.847656 1655.929688 2541.847656 C 1655.910156 2541.847656 1655.898438 2541.847656 1655.890625 2541.847656 C 1652.609375 2541.847656 1649.199219 2541.488281 1645.640625 2540.773438 C 1633.839844 2538.347656 1622.609375 2533.574219 1611.941406 2526.453125 L 1611.929688 2537.976562 C 1619.460938 2543.957031 1629.351562 2548.160156 1641.578125 2550.585938 C 1645.421875 2551.300781 1649.339844 2551.660156 1653.320312 2551.664062 C 1653.339844 2551.664062 1653.359375 2551.664062 1653.371094 2551.664062 C 1665.019531 2551.664062 1675.238281 2548.898438 1684.050781 2543.363281 C 1692.449219 2538.25 1697.71875 2529.71875 1699.859375 2517.769531 C 1700.570312 2513.644531 1700.929688 2510.089844 1700.941406 2507.101562 C 1700.941406 2499.277344 1697.679688 2491.804688 1691.140625 2484.6875 C 1685.449219 2478.566406 1673.148438 2468.457031 1654.238281 2454.359375 C 1642.300781 2445.53125 1634.269531 2438.765625 1630.140625 2434.070312 C 1626.019531 2429.371094 1623.960938 2424.605469 1623.96875 2419.769531 C 1623.96875 2417.917969 1624.261719 2415.714844 1624.828125 2413.152344 C 1626.828125 2403.054688 1631.460938 2395.589844 1638.71875 2390.757812 C 1643.550781 2387.496094 1649.371094 2385.863281 1656.179688 2385.863281 C 1656.191406 2385.863281 1656.199219 2385.863281 1656.21875 2385.863281 C 1659.628906 2385.867188 1663.328125 2386.296875 1667.308594 2387.152344 C 1676.839844 2389.007812 1685.441406 2393.28125 1693.121094 2399.972656 L 1693.128906 2388.878906 C 1685.449219 2383.183594 1677.421875 2379.476562 1669.019531 2377.765625 C 1664.609375 2376.90625 1660.351562 2376.476562 1656.21875 2376.472656 C 1656.210938 2376.472656 1656.191406 2376.472656 1656.179688 2376.472656 Z M 2238.28125 2377.546875 C 2216.828125 2377.546875 2199.339844 2386.070312 2185.828125 2403.113281 C 2172.589844 2419.605469 2165.960938 2440.230469 2165.941406 2464.980469 C 2165.921875 2489.59375 2172.519531 2510.152344 2185.738281 2526.664062 C 2199.238281 2543.746094 2216.730469 2552.296875 2238.210938 2552.3125 C 2238.230469 2552.3125 2238.25 2552.3125 2238.269531 2552.3125 C 2260.011719 2552.3125 2278.210938 2543.789062 2292.859375 2526.746094 C 2307.089844 2509.96875 2314.21875 2489.417969 2314.238281 2465.09375 C 2314.261719 2440.625 2307.160156 2419.992188 2292.949219 2403.195312 C 2278.308594 2386.113281 2260.109375 2377.5625 2238.339844 2377.546875 C 2238.320312 2377.546875 2238.300781 2377.546875 2238.28125 2377.546875 Z M 2071.378906 2377.636719 C 2059 2377.636719 2048.929688 2378.199219 2041.171875 2379.320312 L 2040.960938 2379.320312 L 2040.828125 2549.816406 L 2041.039062 2549.816406 C 2054.378906 2551.859375 2067.550781 2552.882812 2080.550781 2552.882812 C 2082.109375 2552.882812 2083.660156 2552.867188 2085.210938 2552.839844 C 2109.390625 2552.144531 2126.050781 2546.109375 2135.160156 2534.738281 C 2142.140625 2526.066406 2145.269531 2513.40625 2144.570312 2496.761719 C 2144.160156 2485.949219 2140.320312 2476.769531 2133.070312 2469.226562 C 2126.820312 2462.820312 2118.859375 2458.117188 2109.179688 2455.125 C 2123.699219 2448.164062 2130.46875 2434.65625 2129.480469 2414.597656 C 2129.070312 2403.5 2123.671875 2394.460938 2113.289062 2387.484375 C 2104.46875 2381.503906 2094.660156 2378.292969 2083.851562 2377.859375 C 2079.71875 2377.714844 2075.671875 2377.640625 2071.691406 2377.636719 C 2071.589844 2377.636719 2071.480469 2377.636719 2071.378906 2377.636719 Z M 2071.378906 2377.636719 "/>
</svg>
