<?xml version="1.0" encoding="utf-8"?>
<!-- Generator: Adobe Illustrator 27.5.0, SVG Export Plug-In . SVG Version: 6.00 Build 0)  -->
<svg xmlns:xlink="http://www.w3.org/1999/xlink" version="1.1" id="Layer_1" xmlns="http://www.w3.org/2000/svg" x="0px"
     y="0px"
     viewBox="0 0 2100 2100" style="enable-background:new 0 0 2100 2100;" xml:space="preserve">
<rect style="fill:#FFFFFF;" width="2100" height="2100"/>
    <g>
	<path style="fill:#670076;" d="M1172.2,547.396v698.314h49.472V719.517c0,0,125.582,179.89,142.707,275.029
		c0,0,17.125,91.333-51.374,161.735c-11.609,11.932-25.224,23.17-33.7,37.908c-8.791,15.286-10.608,34.225-10.064,51.522v75.159
		c0,0,4.757,32.347-21.882,32.347c-26.639,0-134.145,0-134.145,0V454.16l-20.93-31.396l-31.396,45.666v881.931l-257.711,2.781
		c-7.366,0.079-14.562-3.208-18.708-9.297c-1.918-2.817-3.288-6.328-3.288-10.609c0-14.271,0-23.058,0-23.058h-51.375v20.706
		c3.33,55.154,38.561,71.238,62.315,72.754c44.715,2.854,471.41,0,471.41,0s54.229-4.757,55.18-58.034l0.883-111.245
		c0.043-5.422,2.201-10.593,6.039-14.423c13.973-13.941,48.864-51.05,65.383-89.345c20.93-48.521,49.472-101.639,1.903-216.756
		C1345.351,798.719,1241.934,647.41,1172.2,547.396z"/>
        <polygon style="fill:#670076;" points="988.583,577.84 937.208,656.805 937.208,1246.661 988.583,1246.661 	"/>
        <path style="fill:#670076;" d="M1054.228,370.439l-15.816-11.548c-14.103-10.297-33.947-6.746-43.605,7.802L828.751,616.847
		v572.732h-60.888c0,0-87.527-54.229-83.722-178.86c0,0,16.173-117.02,97.992-217.866V694.86c0,0-132.242,187.422-142.707,284.463
		c-10.1,93.655,6.384,176.677,105.899,258.472c7.004,5.756,15.835,8.866,24.9,8.866h108.949l0.951-615.544L1054.228,370.439z"/>
        <polygon style="fill:#670076;" points="632.449,1494.338 690.8,1494.338 683.189,1505.12 683.189,1564.74 729.807,1555.86
		729.807,1507.657 724.416,1494.338 778.328,1494.338 771.985,1508.925 771.985,1633.874 778.328,1649.73 723.782,1649.73 
		729.807,1631.971 729.807,1584.402 683.189,1591.379 683.189,1630.702 689.532,1649.73 635.62,1649.73 640.694,1641.485 
		640.694,1508.925 	"/>
        <path style="fill:#670076;" d="M964.814,1649.722l-4.448-6.334l-60.246-149.066h-52.025l6.335,13.343l-57.719,135.723l-7.615,6.334
		h59.64l-4.448-6.975l6.335-20.925l55.192-5.088l6.975,25.372l-5.088,7.615H964.814z M859.517,1593.923l19.644-49.296l15.87,45.488
		L859.517,1593.923z"/>
        <path style="fill:#670076;" d="M1278.031,1649.722l-4.448-6.334l-60.246-149.066h-52.025l6.335,13.343l-57.719,135.723
		l-7.615,6.334h59.64l-4.448-6.975l6.335-20.925l55.192-5.088l6.975,25.372l-5.088,7.615H1278.031z M1172.735,1593.923
		l19.644-49.296l15.87,45.488L1172.735,1593.923z"/>
        <polygon style="fill:#670076;" points="975.264,1494.338 1030.444,1494.338 1022.833,1509.718 1022.833,1618.651
		1077.061,1618.651 1098.943,1607.235 1089.905,1649.73 975.264,1649.73 983.826,1639.582 983.826,1509.243 	"/>
        <polygon style="fill:#670076;" points="1295.149,1494.338 1350.329,1494.338 1342.718,1509.718 1342.718,1618.651
		1396.946,1618.651 1418.828,1607.235 1409.79,1649.73 1295.149,1649.73 1303.711,1639.582 1303.711,1509.243 	"/>
        <g>
		<g>
			<text transform="matrix(1 0 0 1 624.8361 1762.0936)"><tspan x="0" y="0" style="fill:#670076; font-family:'Montserrat-ExtraBold'; font-size:90.1011px; letter-spacing:30;">INDONESI</tspan>
                <tspan x="616.827" y="0" style="fill:#670076; font-family:'Montserrat-ExtraBold'; font-size:90.1011px;">A</tspan></text>
		</g>
	</g>
</g>
</svg>
