<?xml version="1.0" encoding="utf-8"?>
<!-- Uploaded to: SVG Repo, www.svgrepo.com, Generator: SVG Repo Mixer Tools -->
<svg width="800px" height="800px" viewBox="0 -0.5 1025 1025" class="icon" version="1.1"
     xmlns="http://www.w3.org/2000/svg">
    <path d="M0.999024 0.999024h1023.000976v1023.000976H0.999024z" fill="#FFFFFF"/>
    <path d="M814.204878 208.796098l-41.959024-11.988293 41.959024-10.989268 11.988293-42.958049 10.989268 42.958049 42.958049 10.989268-42.958049 11.988293-10.989268 41.959024-11.988293-41.959024zM159.843902 837.182439l-31.96878-6.993171 31.96878-7.992195 7.992196-31.96878 6.99317 31.96878 32.967805 7.992195-32.967805 6.993171-6.99317 32.967805-7.992196-32.967805z"
          fill="#FDCD60"/>
    <path d="M852.167805 261.74439l-13.986342-2.997073 13.986342-3.996097 3.996097-13.986342 2.997074 13.986342 14.985365 3.996097-14.985365 2.997073-2.997074 14.985366-3.996097-14.985366zM126.876098 495.516098l-14.985366-2.997074 14.985366-3.996097 2.997073-13.986342 3.996097 13.986342 13.986342 3.996097-13.986342 2.997074-3.996097 14.985365-2.997073-14.985365z"
          fill="#FDCD60"/>
    <path d="M163.84 318.68878m-8.99122 0a8.99122 8.99122 0 1 0 17.98244 0 8.99122 8.99122 0 1 0-17.98244 0Z"
          fill="#5546CB"/>
    <path d="M874.146341 687.32878a24.97561 24.97561 0 1 1 24.97561-24.975609 24.97561 24.97561 0 0 1-24.97561 24.975609z m0-35.964878a9.990244 9.990244 0 1 0 9.990244 9.990244 9.990244 9.990244 0 0 0-9.990244-9.990244z"
          fill="#5546CB"/>
    <path d="M778.24 330.677073a106.89561 106.89561 0 0 0-202.801951-47.953171l98.903414 154.848781a106.89561 106.89561 0 0 0 103.898537-106.89561z m-153.849756 0a46.954146 46.954146 0 1 1 46.954146 46.954147 46.954146 46.954146 0 0 1-46.954146-46.954147z"
          fill="#F47837"/>
    <path d="M671.34439 330.677073m-46.954146 0a46.954146 46.954146 0 1 0 93.908293 0 46.954146 46.954146 0 1 0-93.908293 0Z"
          fill="#FFFFFF"/>
    <path d="M320.686829 850.169756h393.61561l77.923902-128.874146H242.762927l77.923902 128.874146z" fill="#AFBDEF"/>
    <path d="M524.487805 701.315122v-24.97561h302.70439L687.32878 456.554146c62.938537-7.992195 110.891707-60.940488 110.891708-125.877073a126.876098 126.876098 0 0 0-234.770732-66.934634l-85.916097-134.868293v414.595122a380.628293 380.628293 0 0 1-19.980488-56.94439c-12.987317-51.949268-18.981463-163.84-17.982439-333.674146v-21.978537l-16.983415 14.985366c-87.914146 79.921951-151.851707 163.84-188.81561 250.755122s-49.95122 177.826341-36.963902 270.73561v8.991219h307.699512v23.976586H206.798049l102.899512 169.834146h415.594146l102.899513-168.835122z m146.856585-477.533659a106.89561 106.89561 0 0 1 3.996098 213.79122L575.438049 282.723902a106.89561 106.89561 0 0 1 95.906341-58.942439z m118.883903 432.577561H542.470244a770.247805 770.247805 0 0 1-42.958049-70.930731V197.806829z m-573.44 0c-10.989268-85.916098 1.998049-170.833171 36.963902-251.754146s89.912195-154.84878 167.836098-227.777561c0 159.843902 5.994146 263.742439 18.981463 314.692683s38.961951 104.897561 77.923903 164.839024c-93.908293-0.999024-194.809756 0-301.705366 0.999025z m497.514146 193.810732H320.686829l-77.923902-128.874146h549.463414z"
          fill="#5546CB"/>
    <path d="M542.470244 656.359024h247.758049L498.513171 197.806829v387.621464a770.247805 770.247805 0 0 0 43.957073 70.930731z"
          fill="#FFFFFF"/>
    <path d="M440.569756 492.519024c-12.987317-51.949268-18.981463-154.84878-18.981463-314.692683-76.924878 72.92878-133.869268 149.853659-167.836098 227.777561s-47.953171 164.839024-36.963902 251.754147c106.89561-0.999024 207.797073-0.999024 300.706341 0-38.961951-59.941463-64.936585-115.886829-76.924878-164.839025z"
          fill="#FBCE49"/>
</svg>